<mxfile host="app.diagrams.net" modified="2023-04-12T15:02:21.324Z" agent="Mozilla/5.0 (X11; Linux x86_64; rv:109.0) Gecko/20100101 Firefox/111.0" etag="K42IcmXz11JPCAjI8AZ0" version="21.1.7" type="github">
  <diagram name="Page-1" id="-0DZVwQvvVkz4ADU5uRj">
    <mxGraphModel dx="880" dy="483" grid="1" gridSize="10" guides="1" tooltips="1" connect="1" arrows="1" fold="1" page="1" pageScale="1" pageWidth="850" pageHeight="1100" math="0" shadow="0">
      <root>
        <mxCell id="0" />
        <mxCell id="1" parent="0" />
        <mxCell id="vKyeS9ZQJSm98XENTRNd-7" style="edgeStyle=orthogonalEdgeStyle;rounded=0;orthogonalLoop=1;jettySize=auto;html=1;entryX=0;entryY=0.5;entryDx=0;entryDy=0;" edge="1" parent="1" source="vKyeS9ZQJSm98XENTRNd-1" target="vKyeS9ZQJSm98XENTRNd-3">
          <mxGeometry relative="1" as="geometry" />
        </mxCell>
        <mxCell id="vKyeS9ZQJSm98XENTRNd-1" value="Mobile" style="rounded=0;whiteSpace=wrap;html=1;fillColor=#b1ddf0;strokeColor=#10739e;" vertex="1" parent="1">
          <mxGeometry x="120" y="120" width="120" height="40" as="geometry" />
        </mxCell>
        <mxCell id="vKyeS9ZQJSm98XENTRNd-8" style="edgeStyle=orthogonalEdgeStyle;rounded=0;orthogonalLoop=1;jettySize=auto;html=1;entryX=0;entryY=0.5;entryDx=0;entryDy=0;" edge="1" parent="1" source="vKyeS9ZQJSm98XENTRNd-2" target="vKyeS9ZQJSm98XENTRNd-3">
          <mxGeometry relative="1" as="geometry">
            <mxPoint x="330" y="220" as="targetPoint" />
          </mxGeometry>
        </mxCell>
        <mxCell id="vKyeS9ZQJSm98XENTRNd-2" value="Web" style="rounded=0;whiteSpace=wrap;html=1;fillColor=#d0cee2;strokeColor=#56517e;" vertex="1" parent="1">
          <mxGeometry x="120" y="280" width="120" height="40" as="geometry" />
        </mxCell>
        <mxCell id="vKyeS9ZQJSm98XENTRNd-9" style="edgeStyle=orthogonalEdgeStyle;rounded=0;orthogonalLoop=1;jettySize=auto;html=1;entryX=0;entryY=0.5;entryDx=0;entryDy=0;" edge="1" parent="1" source="vKyeS9ZQJSm98XENTRNd-3" target="vKyeS9ZQJSm98XENTRNd-4">
          <mxGeometry relative="1" as="geometry" />
        </mxCell>
        <mxCell id="vKyeS9ZQJSm98XENTRNd-10" style="edgeStyle=orthogonalEdgeStyle;rounded=0;orthogonalLoop=1;jettySize=auto;html=1;entryX=0;entryY=0.5;entryDx=0;entryDy=0;" edge="1" parent="1" source="vKyeS9ZQJSm98XENTRNd-3" target="vKyeS9ZQJSm98XENTRNd-5">
          <mxGeometry relative="1" as="geometry" />
        </mxCell>
        <mxCell id="vKyeS9ZQJSm98XENTRNd-14" style="edgeStyle=orthogonalEdgeStyle;rounded=0;orthogonalLoop=1;jettySize=auto;html=1;entryX=0.5;entryY=0;entryDx=0;entryDy=0;" edge="1" parent="1" source="vKyeS9ZQJSm98XENTRNd-3" target="vKyeS9ZQJSm98XENTRNd-13">
          <mxGeometry relative="1" as="geometry" />
        </mxCell>
        <mxCell id="vKyeS9ZQJSm98XENTRNd-3" value="API&amp;nbsp; Gateway" style="rounded=0;whiteSpace=wrap;html=1;fillColor=#d5e8d4;gradientColor=#97d077;strokeColor=#82b366;" vertex="1" parent="1">
          <mxGeometry x="330" y="200" width="120" height="40" as="geometry" />
        </mxCell>
        <mxCell id="vKyeS9ZQJSm98XENTRNd-11" style="edgeStyle=orthogonalEdgeStyle;rounded=0;orthogonalLoop=1;jettySize=auto;html=1;entryX=0.5;entryY=0;entryDx=0;entryDy=0;entryPerimeter=0;" edge="1" parent="1" source="vKyeS9ZQJSm98XENTRNd-4" target="vKyeS9ZQJSm98XENTRNd-6">
          <mxGeometry relative="1" as="geometry" />
        </mxCell>
        <mxCell id="vKyeS9ZQJSm98XENTRNd-4" value="Services" style="rounded=0;whiteSpace=wrap;html=1;fillColor=#f8cecc;gradientColor=#ea6b66;strokeColor=#b85450;" vertex="1" parent="1">
          <mxGeometry x="520" y="120" width="120" height="40" as="geometry" />
        </mxCell>
        <mxCell id="vKyeS9ZQJSm98XENTRNd-12" style="edgeStyle=orthogonalEdgeStyle;rounded=0;orthogonalLoop=1;jettySize=auto;html=1;entryX=0.5;entryY=1;entryDx=0;entryDy=0;entryPerimeter=0;" edge="1" parent="1" source="vKyeS9ZQJSm98XENTRNd-5" target="vKyeS9ZQJSm98XENTRNd-6">
          <mxGeometry relative="1" as="geometry" />
        </mxCell>
        <mxCell id="vKyeS9ZQJSm98XENTRNd-5" value="Services" style="rounded=0;whiteSpace=wrap;html=1;fillColor=#f8cecc;gradientColor=#ea6b66;strokeColor=#b85450;" vertex="1" parent="1">
          <mxGeometry x="520" y="280" width="120" height="40" as="geometry" />
        </mxCell>
        <mxCell id="vKyeS9ZQJSm98XENTRNd-6" value="" style="shape=cylinder3;whiteSpace=wrap;html=1;boundedLbl=1;backgroundOutline=1;size=15;fillColor=#6d8764;fontColor=#ffffff;strokeColor=#000000;" vertex="1" parent="1">
          <mxGeometry x="720" y="190" width="40" height="60" as="geometry" />
        </mxCell>
        <mxCell id="vKyeS9ZQJSm98XENTRNd-13" value="Security" style="rounded=0;whiteSpace=wrap;html=1;fillColor=#fa6800;strokeColor=#C73500;fontColor=#000000;" vertex="1" parent="1">
          <mxGeometry x="330" y="320" width="120" height="40" as="geometry" />
        </mxCell>
        <mxCell id="vKyeS9ZQJSm98XENTRNd-16" value="" style="shape=image;verticalLabelPosition=bottom;labelBackgroundColor=default;verticalAlign=top;aspect=fixed;imageAspect=0;image=data:image/png,iVBORw0KGgoAAAANSUhEUgAAAa0AAAB1CAMAAADKkk7zAAAAhFBMVEX///8QDxMAAAAAAAbu7u5MTE2FhYbo6OhdXF5BQULT09Pj4+PPz88KCQ77+/vEw8SQkJEdHSDc3NxiYmNpaGn19fVwcHGurq/Hx8dRUVJ9fX4iISSfn6C9vb51dXbr6+uIiIkvLzE5ODqenp6np6iTk5NOTlAXFhk9PT6zs7Q0NDYpKCtOemqgAAALt0lEQVR4nO1d55riIBR1iN1EHXuLZWyj8/7vtyncy4UQE2Jd5fzY/YYUCIfbSSyVLCwsLCwsLCwsLCwsLCwsLCwsLCwsLCwsLCwsLCwsboKaO95Xl6PRaNbd+b1nj8YiHe5+yhRsZv7w2cOySKIzCtn5UuAFbY2dJeylUO5qmAI4jNXdZ4/QArAKxMpL4yoCY+fOs0dpEaI9SxcrKmDn5rNHalEa5+Eq5mvQfvZgPxzDSoYOlPWhVYfPxCSvYMXw2PLZI/5gdA0Ei4vX+VW8+fKzB/BoDIwEi9PFWs8edoByGBw2PiqsOBQgK9SGz89HtSIF7rDxswfyOFQKkVWULr+bwH7XKSinc4cLOr9+uOa3XL+rfpwWJCukq8AkV9UMJMfAN79XE4bO1nFDDW/3Cmr6DlgWJiuky9zVqOr7C/OQxvrshGz144YaNrwnW7sryAomZWPcYQpbEWE/hvprguRU44Y3Z6t5FVnBrIxMe0xnK/QzDS0hBB6MJ8PenC3HNM5KTLCpubnEViBeNaObucyJruKi9eZsja4UrQKm6yJbX87c7G69DaMG763ZclP8sxCO43h5BA8MfF4gWx7pi9xua/gMNZdoz7dma1TvxxhICBrq9Wnld+7AdF6ijZllEoAt73tYi9ByFzSjzK55oLdmKwfa5V5nsfy7VFE28wsFW6Sx94e3vyov8elscQxP9VS+zBwNLVul0h9IF6tfMUzLFmDYTeHLM/IMUtjqCeFSr2juqoPpoT7qnhIOo9+J4fNATWHL5Yc7pNpdxms091EyYGV/v6wfpv3ZYkLrr6uU08PbTCYT153cobreitFLImitrcoJZ6890hswNjHoNYWt0i+4GrIT3xxwRyT697iX4uc2+incdipsrdHuimt2eI3wTsrqfeIzf0jPbCrYHeLpsh4QTlu1dGv4FxxCAe/vsFzgUplQ902wZaK80tjq4kSThdlqyPIc+JFrck0br9GzJfKIgmSsDrEFmYqkXI+Z/KzBUsGCeV9zfilcHFLvN0U9V6zledHamvH+V0fdVcwgY5TGFqbAiKTqtoqwb9FZFlsl/FPsTED1QEIPmGbSNE2qEY/N+EFf7TcG2F7PPB+XhaFJYBys6UGsGId/muvIMs1ENls4s1vtEB2xNjLZAiEQEtkS9xSC8QOFF/RHN9quMc+G3XTJE4jOTWPGbJxM2AqHwB+l/Z280PnJ328aW/vEeu2kjFCkkjPZGvO/nQZcMiZs9RK3AZOZVkViu/g4FC4kKcJbs1X+6ciJxE53GRr7xPXE0EkeM1CFaWxV0MvgSreNushThgRzls2W+Bu6Ibk2vI0LQ/riDWIlg/XGv9vSFdKD9xNL43aYVS9hPdXRdY7GukqqdHbK3W8KW0JDwcQKt2M+Dtb8cNLAnBXMaiZbpS8lSU/T2GilQOOiXRK2beAGBqC2FQ1b+Qz64Nj34/cdaG0GO0ZLKVlmwefMRgpbYDq+nANvwQnBooxwxbgOy2ZrBkRslRPougB/CyymcCLA4cEF6pzlp2ADfAIhb4/fDbbXam7Hi0aSsHneX+4b6zNPZyFaXD9NQCf/4lmCnJ3akMYW2D4IMqSRA+nqNNehayEkwgeKVaGIDfCUtdLVI6H3xwLpikY7U4/mz8UKtmpxKN7sbBvETPLpKJWbndNivaxvSOgNtg1cvGy22sqsSgPnpIMSRnvTc/3xtjqYnkXPLfXGR1XFlubQUmCDSRaa7kU0E3zAaGP3r6Eczl/0zaqY7C9ciw45V7zZbJUa8q6ob2pyuRoDX+5S12VVCe/Vi5IOzQ2RmcTQkwW2eah4Gvk3xmdUIy+qVCi4GbCFsxppNZj0+D8vnlhwx9mF7J6vsoUCCQKInBvvfcgBw2iLEtOlg4PGXVaHgItsORdClfLpD538/GyBgYk37vNJZ/B/dBbIW7pQ9NA/FUpkA0LLfXh0VUySpjmxypUkTEGHPiMf4yUFJuHyLhrNtoxyM7Bfg4YU9eRnC5aldxSdB34AZysUOJS3ZBG8NRnvZ3WpuIdsLeCyk9zPPRRh7VAvjkObjJaPOXfWOZ0th9XV98LapwGYNsngGLAFWdxIBjbRXQJFECcrIsOFbqMcJrX2FTU0lthayT48+O93SL/fAi2ZrdwBVypbzkHdMjCsqnNVgC20Jz7mRoMZjz3ySBDQ86Zy7Ta06RzqTnH/hQsT3uVFXxyV2cr9PlfCJxR5A+XM5DtleKoBW9AUev0d5KgnDBfM+pF0vVSpEkoY2RpL/HD/HdMsr4YrZcs7TvwQHUGXvCx9Sayiws3G3CdEAxtmnmNnIVpZ8c1D7aemnUrqexzhsprjIJEtKGJEJhvXBE3K3wzt2jWIHLcr7RbmMjAOl7OhtLQR4rD2RR7JhC1MErV5fToKX2O3PXC30WkUMQhWFWP5nw8WPZHvEIEl9wKdMNkCuY777Ae5yieMkm6K3TL2CUXmSQgXzQJg0cJh/VMvzgkti7CFXoQLnmB4Mx+U4kKQiXODT+WsOzWlJ8EWZLHC+wFzt69DxlP0VRRenM6QX3cwj7cEW5i7o6YDp4w1RFGiEFtwElvEYhQX48DhKHOfkQi2qLRtEzeRkjbEf8E+8k6DGYoLlhOr5j/ZsTXOZZCsrjAKgnOgUMoXF2IL3AjWjxcYNy1nrhV5foQoB0xWkRKwli1OdKBO0X+/fR3yJlDeJDLPExK2sEhMQkvIHkiVM8zqGrGFhpFHWy7tIJmdFSaK9NzSsdXBBBa3dE4l7yw8FmqJq0gOXrSJ3WnoUqFDQYIw3EpixhaO1aNDdZXlJs6HAdJtkgsdW6j/alzRvOj7z74StBpYVx1bgnusnCNbxPOYFWOrJA0Wy0+y3SXBnka2xK4DiS0+IAdes39CHTIT7U7ivfJra8e4Ww4z2GDqiXIRyteQLekDE2gbpR16VCpYslAlHlhiC+QTFPT96pD930YxzDU5GYMKnJYtsiuDT7Ov8lem+1/M2JLqBXhEsrw07YSxA7hO7px0LRloJYd4hzokxz58Q6sItIm7/CpAvy8DqWB8W4bY7sjYaLvoHsI0VIGKSYgV4UWkhmjAKA1G5KvZX3WxnR1DTrSakMTR0bHck2CM5lXxsYJzdn8APVtlMUN84on6iuKG8P9GIZ+QhAiSzv4irTQVQ/bFRrmM8DRWAfUosdWT5PMedUjAqnw7GFjXlD1PmOwFh6UsLdvoyBwmx5Qtkvcn2opsZpDDxeQOIrbA/JUcqtAq3z3qkM9GClttIVw8wvKVOXNYrShbE8KLWFikAyYX1tStumwqfFSZrT2Vw1tMz4shba8uxrCew1s6UsWEOS2RgTVkSywFmjkealsjjKgj5YXu/VLPFs09v2Yd8jrM0NgpB4QVhBB5uAwNlhe/5rIuEVvLq2ma97cAci68ge00+/yjbY0wOfOug//mofIcwalK0uYs9nvftw45blRuA7WMeBGtJiD1gEhfDE+zytz5rsz8SFUNXX4GcAF/u1y/tbGhrb+3O8xs5ehtBz9f3qa+b0rnqqdiHCBVM++ANivqxMv46M+2iv3UuWtGBbFI+D5FcI9XKv4fDPSW8h741kW6pniBj0o+Dxh436sOSeDeQLjuGhO+PPDVmHvVISmu+ThhDI996Lfhf0eLMfkmxUOm4etaXfiOAXwexB9tEBvX7rLXSUXvSuEyKJW8F+T3AB6VxxhfRRf7WH9Q/n7Fw3boXn5D5zIc70ONllx59u5Y2FLRL0yX96pbfO6PDs3mGn7z7zrk+yiNjqzP/VDZIE4jRt/p6T5WwRSjy/nksHjor+s/x+O53n28T1zk87rMMftgscXNsDf/jaDfj3Uwng/j39/61DjrNWB/2+7/gsHvRo6sFnw68v4m6++Lvlr7aajl+L3jH6sEXwZZvyXe/6gf/fsP0BlJtQDBFGvsXvAdCovmFj/6BtjMfEvV6yL6YM9yNBrNujv/g3NMFhYWFhYWFhYWFhYWFhYWFhYWFhYWFhYWFhYWFhYWd8Y/ilOnt+7K8ccAAAAASUVORK5CYII=;" vertex="1" parent="1">
          <mxGeometry x="570" y="84" width="99" height="27" as="geometry" />
        </mxCell>
        <mxCell id="vKyeS9ZQJSm98XENTRNd-17" value="" style="shape=image;verticalLabelPosition=bottom;labelBackgroundColor=default;verticalAlign=top;aspect=fixed;imageAspect=0;image=data:image/png,iVBORw0KGgoAAAANSUhEUgAAAa0AAAB1CAMAAADKkk7zAAAAhFBMVEX///8QDxMAAAAAAAbu7u5MTE2FhYbo6OhdXF5BQULT09Pj4+PPz88KCQ77+/vEw8SQkJEdHSDc3NxiYmNpaGn19fVwcHGurq/Hx8dRUVJ9fX4iISSfn6C9vb51dXbr6+uIiIkvLzE5ODqenp6np6iTk5NOTlAXFhk9PT6zs7Q0NDYpKCtOemqgAAALt0lEQVR4nO1d55riIBR1iN1EHXuLZWyj8/7vtyncy4UQE2Jd5fzY/YYUCIfbSSyVLCwsLCwsLCwsLCwsLCwsLCwsLCwsLCwsLCwsLCwsboKaO95Xl6PRaNbd+b1nj8YiHe5+yhRsZv7w2cOySKIzCtn5UuAFbY2dJeylUO5qmAI4jNXdZ4/QArAKxMpL4yoCY+fOs0dpEaI9SxcrKmDn5rNHalEa5+Eq5mvQfvZgPxzDSoYOlPWhVYfPxCSvYMXw2PLZI/5gdA0Ei4vX+VW8+fKzB/BoDIwEi9PFWs8edoByGBw2PiqsOBQgK9SGz89HtSIF7rDxswfyOFQKkVWULr+bwH7XKSinc4cLOr9+uOa3XL+rfpwWJCukq8AkV9UMJMfAN79XE4bO1nFDDW/3Cmr6DlgWJiuky9zVqOr7C/OQxvrshGz144YaNrwnW7sryAomZWPcYQpbEWE/hvprguRU44Y3Z6t5FVnBrIxMe0xnK/QzDS0hBB6MJ8PenC3HNM5KTLCpubnEViBeNaObucyJruKi9eZsja4UrQKm6yJbX87c7G69DaMG763ZclP8sxCO43h5BA8MfF4gWx7pi9xua/gMNZdoz7dma1TvxxhICBrq9Wnld+7AdF6ijZllEoAt73tYi9ByFzSjzK55oLdmKwfa5V5nsfy7VFE28wsFW6Sx94e3vyov8elscQxP9VS+zBwNLVul0h9IF6tfMUzLFmDYTeHLM/IMUtjqCeFSr2juqoPpoT7qnhIOo9+J4fNATWHL5Yc7pNpdxms091EyYGV/v6wfpv3ZYkLrr6uU08PbTCYT153cobreitFLImitrcoJZ6890hswNjHoNYWt0i+4GrIT3xxwRyT697iX4uc2+incdipsrdHuimt2eI3wTsrqfeIzf0jPbCrYHeLpsh4QTlu1dGv4FxxCAe/vsFzgUplQ902wZaK80tjq4kSThdlqyPIc+JFrck0br9GzJfKIgmSsDrEFmYqkXI+Z/KzBUsGCeV9zfilcHFLvN0U9V6zledHamvH+V0fdVcwgY5TGFqbAiKTqtoqwb9FZFlsl/FPsTED1QEIPmGbSNE2qEY/N+EFf7TcG2F7PPB+XhaFJYBys6UGsGId/muvIMs1ENls4s1vtEB2xNjLZAiEQEtkS9xSC8QOFF/RHN9quMc+G3XTJE4jOTWPGbJxM2AqHwB+l/Z280PnJ328aW/vEeu2kjFCkkjPZGvO/nQZcMiZs9RK3AZOZVkViu/g4FC4kKcJbs1X+6ciJxE53GRr7xPXE0EkeM1CFaWxV0MvgSreNushThgRzls2W+Bu6Ibk2vI0LQ/riDWIlg/XGv9vSFdKD9xNL43aYVS9hPdXRdY7GukqqdHbK3W8KW0JDwcQKt2M+Dtb8cNLAnBXMaiZbpS8lSU/T2GilQOOiXRK2beAGBqC2FQ1b+Qz64Nj34/cdaG0GO0ZLKVlmwefMRgpbYDq+nANvwQnBooxwxbgOy2ZrBkRslRPougB/CyymcCLA4cEF6pzlp2ADfAIhb4/fDbbXam7Hi0aSsHneX+4b6zNPZyFaXD9NQCf/4lmCnJ3akMYW2D4IMqSRA+nqNNehayEkwgeKVaGIDfCUtdLVI6H3xwLpikY7U4/mz8UKtmpxKN7sbBvETPLpKJWbndNivaxvSOgNtg1cvGy22sqsSgPnpIMSRnvTc/3xtjqYnkXPLfXGR1XFlubQUmCDSRaa7kU0E3zAaGP3r6Eczl/0zaqY7C9ciw45V7zZbJUa8q6ob2pyuRoDX+5S12VVCe/Vi5IOzQ2RmcTQkwW2eah4Gvk3xmdUIy+qVCi4GbCFsxppNZj0+D8vnlhwx9mF7J6vsoUCCQKInBvvfcgBw2iLEtOlg4PGXVaHgItsORdClfLpD538/GyBgYk37vNJZ/B/dBbIW7pQ9NA/FUpkA0LLfXh0VUySpjmxypUkTEGHPiMf4yUFJuHyLhrNtoxyM7Bfg4YU9eRnC5aldxSdB34AZysUOJS3ZBG8NRnvZ3WpuIdsLeCyk9zPPRRh7VAvjkObjJaPOXfWOZ0th9XV98LapwGYNsngGLAFWdxIBjbRXQJFECcrIsOFbqMcJrX2FTU0lthayT48+O93SL/fAi2ZrdwBVypbzkHdMjCsqnNVgC20Jz7mRoMZjz3ySBDQ86Zy7Ta06RzqTnH/hQsT3uVFXxyV2cr9PlfCJxR5A+XM5DtleKoBW9AUev0d5KgnDBfM+pF0vVSpEkoY2RpL/HD/HdMsr4YrZcs7TvwQHUGXvCx9Sayiws3G3CdEAxtmnmNnIVpZ8c1D7aemnUrqexzhsprjIJEtKGJEJhvXBE3K3wzt2jWIHLcr7RbmMjAOl7OhtLQR4rD2RR7JhC1MErV5fToKX2O3PXC30WkUMQhWFWP5nw8WPZHvEIEl9wKdMNkCuY777Ae5yieMkm6K3TL2CUXmSQgXzQJg0cJh/VMvzgkti7CFXoQLnmB4Mx+U4kKQiXODT+WsOzWlJ8EWZLHC+wFzt69DxlP0VRRenM6QX3cwj7cEW5i7o6YDp4w1RFGiEFtwElvEYhQX48DhKHOfkQi2qLRtEzeRkjbEf8E+8k6DGYoLlhOr5j/ZsTXOZZCsrjAKgnOgUMoXF2IL3AjWjxcYNy1nrhV5foQoB0xWkRKwli1OdKBO0X+/fR3yJlDeJDLPExK2sEhMQkvIHkiVM8zqGrGFhpFHWy7tIJmdFSaK9NzSsdXBBBa3dE4l7yw8FmqJq0gOXrSJ3WnoUqFDQYIw3EpixhaO1aNDdZXlJs6HAdJtkgsdW6j/alzRvOj7z74StBpYVx1bgnusnCNbxPOYFWOrJA0Wy0+y3SXBnka2xK4DiS0+IAdes39CHTIT7U7ivfJra8e4Ww4z2GDqiXIRyteQLekDE2gbpR16VCpYslAlHlhiC+QTFPT96pD930YxzDU5GYMKnJYtsiuDT7Ov8lem+1/M2JLqBXhEsrw07YSxA7hO7px0LRloJYd4hzokxz58Q6sItIm7/CpAvy8DqWB8W4bY7sjYaLvoHsI0VIGKSYgV4UWkhmjAKA1G5KvZX3WxnR1DTrSakMTR0bHck2CM5lXxsYJzdn8APVtlMUN84on6iuKG8P9GIZ+QhAiSzv4irTQVQ/bFRrmM8DRWAfUosdWT5PMedUjAqnw7GFjXlD1PmOwFh6UsLdvoyBwmx5Qtkvcn2opsZpDDxeQOIrbA/JUcqtAq3z3qkM9GClttIVw8wvKVOXNYrShbE8KLWFikAyYX1tStumwqfFSZrT2Vw1tMz4shba8uxrCew1s6UsWEOS2RgTVkSywFmjkealsjjKgj5YXu/VLPFs09v2Yd8jrM0NgpB4QVhBB5uAwNlhe/5rIuEVvLq2ma97cAci68ge00+/yjbY0wOfOug//mofIcwalK0uYs9nvftw45blRuA7WMeBGtJiD1gEhfDE+zytz5rsz8SFUNXX4GcAF/u1y/tbGhrb+3O8xs5ehtBz9f3qa+b0rnqqdiHCBVM++ANivqxMv46M+2iv3UuWtGBbFI+D5FcI9XKv4fDPSW8h741kW6pniBj0o+Dxh436sOSeDeQLjuGhO+PPDVmHvVISmu+ThhDI996Lfhf0eLMfkmxUOm4etaXfiOAXwexB9tEBvX7rLXSUXvSuEyKJW8F+T3AB6VxxhfRRf7WH9Q/n7Fw3boXn5D5zIc70ONllx59u5Y2FLRL0yX96pbfO6PDs3mGn7z7zrk+yiNjqzP/VDZIE4jRt/p6T5WwRSjy/nksHjor+s/x+O53n28T1zk87rMMftgscXNsDf/jaDfj3Uwng/j39/61DjrNWB/2+7/gsHvRo6sFnw68v4m6++Lvlr7aajl+L3jH6sEXwZZvyXe/6gf/fsP0BlJtQDBFGvsXvAdCovmFj/6BtjMfEvV6yL6YM9yNBrNujv/g3NMFhYWFhYWFhYWFhYWFhYWFhYWFhYWFhYWFhYWFhYWd8Y/ilOnt+7K8ccAAAAASUVORK5CYII=;rotation=90;" vertex="1" parent="1">
          <mxGeometry x="650" y="235" width="99" height="27" as="geometry" />
        </mxCell>
        <mxCell id="vKyeS9ZQJSm98XENTRNd-18" value="" style="shape=image;verticalLabelPosition=bottom;labelBackgroundColor=default;verticalAlign=top;aspect=fixed;imageAspect=0;image=data:image/png,iVBORw0KGgoAAAANSUhEUgAAAa0AAAB1CAMAAADKkk7zAAAAhFBMVEX///8QDxMAAAAAAAbu7u5MTE2FhYbo6OhdXF5BQULT09Pj4+PPz88KCQ77+/vEw8SQkJEdHSDc3NxiYmNpaGn19fVwcHGurq/Hx8dRUVJ9fX4iISSfn6C9vb51dXbr6+uIiIkvLzE5ODqenp6np6iTk5NOTlAXFhk9PT6zs7Q0NDYpKCtOemqgAAALt0lEQVR4nO1d55riIBR1iN1EHXuLZWyj8/7vtyncy4UQE2Jd5fzY/YYUCIfbSSyVLCwsLCwsLCwsLCwsLCwsLCwsLCwsLCwsLCwsLCwsboKaO95Xl6PRaNbd+b1nj8YiHe5+yhRsZv7w2cOySKIzCtn5UuAFbY2dJeylUO5qmAI4jNXdZ4/QArAKxMpL4yoCY+fOs0dpEaI9SxcrKmDn5rNHalEa5+Eq5mvQfvZgPxzDSoYOlPWhVYfPxCSvYMXw2PLZI/5gdA0Ei4vX+VW8+fKzB/BoDIwEi9PFWs8edoByGBw2PiqsOBQgK9SGz89HtSIF7rDxswfyOFQKkVWULr+bwH7XKSinc4cLOr9+uOa3XL+rfpwWJCukq8AkV9UMJMfAN79XE4bO1nFDDW/3Cmr6DlgWJiuky9zVqOr7C/OQxvrshGz144YaNrwnW7sryAomZWPcYQpbEWE/hvprguRU44Y3Z6t5FVnBrIxMe0xnK/QzDS0hBB6MJ8PenC3HNM5KTLCpubnEViBeNaObucyJruKi9eZsja4UrQKm6yJbX87c7G69DaMG763ZclP8sxCO43h5BA8MfF4gWx7pi9xua/gMNZdoz7dma1TvxxhICBrq9Wnld+7AdF6ijZllEoAt73tYi9ByFzSjzK55oLdmKwfa5V5nsfy7VFE28wsFW6Sx94e3vyov8elscQxP9VS+zBwNLVul0h9IF6tfMUzLFmDYTeHLM/IMUtjqCeFSr2juqoPpoT7qnhIOo9+J4fNATWHL5Yc7pNpdxms091EyYGV/v6wfpv3ZYkLrr6uU08PbTCYT153cobreitFLImitrcoJZ6890hswNjHoNYWt0i+4GrIT3xxwRyT697iX4uc2+incdipsrdHuimt2eI3wTsrqfeIzf0jPbCrYHeLpsh4QTlu1dGv4FxxCAe/vsFzgUplQ902wZaK80tjq4kSThdlqyPIc+JFrck0br9GzJfKIgmSsDrEFmYqkXI+Z/KzBUsGCeV9zfilcHFLvN0U9V6zledHamvH+V0fdVcwgY5TGFqbAiKTqtoqwb9FZFlsl/FPsTED1QEIPmGbSNE2qEY/N+EFf7TcG2F7PPB+XhaFJYBys6UGsGId/muvIMs1ENls4s1vtEB2xNjLZAiEQEtkS9xSC8QOFF/RHN9quMc+G3XTJE4jOTWPGbJxM2AqHwB+l/Z280PnJ328aW/vEeu2kjFCkkjPZGvO/nQZcMiZs9RK3AZOZVkViu/g4FC4kKcJbs1X+6ciJxE53GRr7xPXE0EkeM1CFaWxV0MvgSreNushThgRzls2W+Bu6Ibk2vI0LQ/riDWIlg/XGv9vSFdKD9xNL43aYVS9hPdXRdY7GukqqdHbK3W8KW0JDwcQKt2M+Dtb8cNLAnBXMaiZbpS8lSU/T2GilQOOiXRK2beAGBqC2FQ1b+Qz64Nj34/cdaG0GO0ZLKVlmwefMRgpbYDq+nANvwQnBooxwxbgOy2ZrBkRslRPougB/CyymcCLA4cEF6pzlp2ADfAIhb4/fDbbXam7Hi0aSsHneX+4b6zNPZyFaXD9NQCf/4lmCnJ3akMYW2D4IMqSRA+nqNNehayEkwgeKVaGIDfCUtdLVI6H3xwLpikY7U4/mz8UKtmpxKN7sbBvETPLpKJWbndNivaxvSOgNtg1cvGy22sqsSgPnpIMSRnvTc/3xtjqYnkXPLfXGR1XFlubQUmCDSRaa7kU0E3zAaGP3r6Eczl/0zaqY7C9ciw45V7zZbJUa8q6ob2pyuRoDX+5S12VVCe/Vi5IOzQ2RmcTQkwW2eah4Gvk3xmdUIy+qVCi4GbCFsxppNZj0+D8vnlhwx9mF7J6vsoUCCQKInBvvfcgBw2iLEtOlg4PGXVaHgItsORdClfLpD538/GyBgYk37vNJZ/B/dBbIW7pQ9NA/FUpkA0LLfXh0VUySpjmxypUkTEGHPiMf4yUFJuHyLhrNtoxyM7Bfg4YU9eRnC5aldxSdB34AZysUOJS3ZBG8NRnvZ3WpuIdsLeCyk9zPPRRh7VAvjkObjJaPOXfWOZ0th9XV98LapwGYNsngGLAFWdxIBjbRXQJFECcrIsOFbqMcJrX2FTU0lthayT48+O93SL/fAi2ZrdwBVypbzkHdMjCsqnNVgC20Jz7mRoMZjz3ySBDQ86Zy7Ta06RzqTnH/hQsT3uVFXxyV2cr9PlfCJxR5A+XM5DtleKoBW9AUev0d5KgnDBfM+pF0vVSpEkoY2RpL/HD/HdMsr4YrZcs7TvwQHUGXvCx9Sayiws3G3CdEAxtmnmNnIVpZ8c1D7aemnUrqexzhsprjIJEtKGJEJhvXBE3K3wzt2jWIHLcr7RbmMjAOl7OhtLQR4rD2RR7JhC1MErV5fToKX2O3PXC30WkUMQhWFWP5nw8WPZHvEIEl9wKdMNkCuY777Ae5yieMkm6K3TL2CUXmSQgXzQJg0cJh/VMvzgkti7CFXoQLnmB4Mx+U4kKQiXODT+WsOzWlJ8EWZLHC+wFzt69DxlP0VRRenM6QX3cwj7cEW5i7o6YDp4w1RFGiEFtwElvEYhQX48DhKHOfkQi2qLRtEzeRkjbEf8E+8k6DGYoLlhOr5j/ZsTXOZZCsrjAKgnOgUMoXF2IL3AjWjxcYNy1nrhV5foQoB0xWkRKwli1OdKBO0X+/fR3yJlDeJDLPExK2sEhMQkvIHkiVM8zqGrGFhpFHWy7tIJmdFSaK9NzSsdXBBBa3dE4l7yw8FmqJq0gOXrSJ3WnoUqFDQYIw3EpixhaO1aNDdZXlJs6HAdJtkgsdW6j/alzRvOj7z74StBpYVx1bgnusnCNbxPOYFWOrJA0Wy0+y3SXBnka2xK4DiS0+IAdes39CHTIT7U7ivfJra8e4Ww4z2GDqiXIRyteQLekDE2gbpR16VCpYslAlHlhiC+QTFPT96pD930YxzDU5GYMKnJYtsiuDT7Ov8lem+1/M2JLqBXhEsrw07YSxA7hO7px0LRloJYd4hzokxz58Q6sItIm7/CpAvy8DqWB8W4bY7sjYaLvoHsI0VIGKSYgV4UWkhmjAKA1G5KvZX3WxnR1DTrSakMTR0bHck2CM5lXxsYJzdn8APVtlMUN84on6iuKG8P9GIZ+QhAiSzv4irTQVQ/bFRrmM8DRWAfUosdWT5PMedUjAqnw7GFjXlD1PmOwFh6UsLdvoyBwmx5Qtkvcn2opsZpDDxeQOIrbA/JUcqtAq3z3qkM9GClttIVw8wvKVOXNYrShbE8KLWFikAyYX1tStumwqfFSZrT2Vw1tMz4shba8uxrCew1s6UsWEOS2RgTVkSywFmjkealsjjKgj5YXu/VLPFs09v2Yd8jrM0NgpB4QVhBB5uAwNlhe/5rIuEVvLq2ma97cAci68ge00+/yjbY0wOfOug//mofIcwalK0uYs9nvftw45blRuA7WMeBGtJiD1gEhfDE+zytz5rsz8SFUNXX4GcAF/u1y/tbGhrb+3O8xs5ehtBz9f3qa+b0rnqqdiHCBVM++ANivqxMv46M+2iv3UuWtGBbFI+D5FcI9XKv4fDPSW8h741kW6pniBj0o+Dxh436sOSeDeQLjuGhO+PPDVmHvVISmu+ThhDI996Lfhf0eLMfkmxUOm4etaXfiOAXwexB9tEBvX7rLXSUXvSuEyKJW8F+T3AB6VxxhfRRf7WH9Q/n7Fw3boXn5D5zIc70ONllx59u5Y2FLRL0yX96pbfO6PDs3mGn7z7zrk+yiNjqzP/VDZIE4jRt/p6T5WwRSjy/nksHjor+s/x+O53n28T1zk87rMMftgscXNsDf/jaDfj3Uwng/j39/61DjrNWB/2+7/gsHvRo6sFnw68v4m6++Lvlr7aajl+L3jH6sEXwZZvyXe/6gf/fsP0BlJtQDBFGvsXvAdCovmFj/6BtjMfEvV6yL6YM9yNBrNujv/g3NMFhYWFhYWFhYWFhYWFhYWFhYWFhYWFhYWFhYWFhYWd8Y/ilOnt+7K8ccAAAAASUVORK5CYII=;" vertex="1" parent="1">
          <mxGeometry x="561.62" y="247" width="99" height="27" as="geometry" />
        </mxCell>
        <mxCell id="vKyeS9ZQJSm98XENTRNd-21" value="" style="shape=image;verticalLabelPosition=bottom;labelBackgroundColor=default;verticalAlign=top;aspect=fixed;imageAspect=0;image=data:image/png,iVBORw0KGgoAAAANSUhEUgAAANMAAAA3CAYAAACW0n9NAAAABHNCSVQICAgIfAhkiAAAEq9JREFUeF7tXQlUFEca/npm8AIRBcQEJYouuuoTvG+NV0wUMMbERFzEGK94Xy+rMbrrru56BEg8AlETxSviifdFQI0n0RVZRSVgRFFQPEBEQObYKrCxp6en5wTZl+r3+g3dXfXXV1/XV3/VXzUDpyMH2MEYYAzYzIDCZgvMAGOAMVDCABMTawiMATsxwMRkJyKZGcYAExNrA4wBOzHAxGQnIpkZxgATE2sDjAE7MaCyk50yM5ZG2jmOszcEZo8x8FoYsIuYhAK6fFuLRHLeyNThziMtHuYBz1+ULmXVqMLBrSbQwFWBpm9w8PNSwJec/MGE9VraACvUTgxwtiza8iLKeKzDvksaxF7V4MFTy9aA6zpz6NtCiYDWStSvU+qlmKjs9HaZmQplwCox8SJ6nK/DupNqxFzU2AX0+22V+LSHCnUcmajsQigzUqEMWCQm4XBuf6IGq46p8azIMk9kqnZOVTlM7KeCv5+yLCnzVKZYY88rAwNmi4kXEv0MO2w/b2SMBOqlZryrAi8kJihjTLH7lYUBs8TEC0mr1WLuDjVOpWgrBH83HwUWfaiCQlEapGCCqhDaWSFWMmBynel1CYnWh4qWipeKmB7CYaaV9WXZGAPlxoCsmIRCCj+iqTCPJKwtFRQtmwmq3NoAM2wnBoyKSSikA5e1dovYWYObRgspBiYoa9hjeSqKAUkxCYMNT0j4+7tY+4S+bakUxUCxCLHZYo/lZQzYmwFJMfGF0Ia7/pTW7uFvaypBQ/AUC5s3WcMey1MRDBiISdjzZzy2z/CudjMV3qtte3XocI9iYt7Jdi6ZBfszYCAmWgRtrHR+sj/RDguyJKwd2M0BIzsoUNUO+Ckmio15KDuQyUzYlQG9ja7iBhqbbPt6Ug1vJfoWaHCzkQq9nF7g8DPb8FNM43q96gMoZsvWnzRIS0hErfZt4Sa3YV2bjrgNCXAO+BDtXOUS6pCbuBs7s/0Q0s8bpfs2CnHj4EbE3zZvrsk5toD/8O7wLKmWDk+T9mBHZksE928CB6N06fDkP7uw61FrjCwr1zBxYWYSzl28jjtk/6RLg6Zo08kXntWN1UeL++eisScxF8I3z3EKKB2qw+VNH7Tt0h6NnCX7YAL9EX7dvhMXyejB+MHBqWUAgrq9qf+bCUU3cGhDPNJNUqaAe8eP8EHr2iirhTYTp3/ai//mmej8uSr4U/8Q9Gn4ancNdLm4HBONs/f1MXOcEg7Va8GjsR86d/RBHTO2hBsk4b1S0h0dsi3ctGpAIPl6RX/ikX79pQj7vapidhsFjp3UwiRfBoZe3aCYKLZWDbQli7mWCYnYyTuKxZ/MQ4OYc5jfyqD6rwoqTsL6WQvRqPVgIiaZdKTZZR1ZgmkXZmIYadTVSyy8QPrZvYj5tVivJgXpCTiT8xZ6+XroNSSFqxqdhr0SU/axpZh2ahKGyopJi8xD/8L0xL8iqKxcAfw7h7Fk5mx8uzcNDg2bohHpEJ6kp+BmgRcGTPo3wr70R0ODoQLp9HbOx7StLujewvVVYyVmtcXP8PD3ZCQ/8kDAV6sRMbM73MSa0ubietwexNzi37AamZdOIMOtG9o34AsjYtB2xidiMb24jbN7Y5CgT5kef7q8VJw5l4XO3w3AYKGYNCmI/nIG9nh0w59fbpbWy8hfcDXQu1Wwvpi093FkyRSEFXSH3xsCkZFOTf38Me5cu4IMp56YsWoN/jagAeRaQtkzsVe6fNuEyiXR6t90eFOFAKUG8+4A9x6pcT9YhY7nX+BMkRmZZZJQbK0avOpdzfdOWqRvDMXWW5dQM/wQpq4LQC2Zcqx/5Ix3/rkP7+gZ0CIttBtan5uGPduHvhSd9SXI5XyR8gM+7jsTN7rNx6YrY9CvSc1S8erycSt+Hf4+PRhdLizCsZ0T0KKa2BKHWu8uxL41/VFF/AhFyIgLw7iQQPgXxSL+q7b69VB6IzjyAILL8uVgQ6AX1vffiIMT68v/ek/NfvjHvn4GJZbd0N7Dtr90wgWHfyB8pIQthRv8l+zDql6GqI0b5Z9UQacvdiFmOPl+kPhQZ+P86ikYEfQu8naeRngfF71ORphc3LeUPKON80aWrWLi0L2jAjcTNLhHTOnyNdiWxmFoK06eVHFlJK4pNrH4JZIZ3io8j5XLL6HL5NGouzsMUTflhiOG2f8v7qiv4puRs3AjIBonN89Af15IFDzniIa9J2Hd8d0IujsXIUsvER9qyVEV9XvPQfTWz5AX+hU2360o/oqR8v0oTDreDuFRU9HCwKNaUgcL06rc0XFCFHbNroX1cyJwTWZYpScmfohHJ/h0jG3LoXBV4sM6Wmz7jTT8l4au/kqQ+KnQQs5XmlEoxUYxWhaI0OHBrlBEFQdh9qIFmNnrClauOI0CM8r7f0ry/OdvsSI9EIsXvWN0TsjVfhsLQoPwOCIch8iXNy09nDqNxCeNzuHomeeWZrUqfcHFxRgxJxWD1qxG8FvCoZhV5qzIVAXNQ0ag/fVYHM8y3oGUTnklftT1oanJnAlIbToo8eyiGqmCsrU5GmzPUmBoM86oqzRhtuSxFDaTnor02GvCYtF00lT0cKqHj2aSwcimUOyw2QObg7ii0qhx/ZczKOg5CH1cjAUZSrE4dhuEvoqzOPlfmUmKMdicM1ycNXie/6KsozSW1Nb7upyfMTs4FEWfRyFsoJtN7cYWLJyzC5y5fOQ/N+5kDHwEbZT0LLDM/+vhVNRUYqiXFtGxxIPoPdHhHBn2hQxQouFVNX43jku23hQbj1M2oeDh06Ph+D4zECs+bVwScVN2mYzJLVsj7PskDPubr+zE0twyXn86LZ48zoVzXXeJ+Y4IndIdHnVyceeJ8Z7WWH10T87i1DVPtGzuXL6Nm0Tpdk4ahU115+HE37tCYkbzCqKuEBkX4xCrMWjSpWkULvDp3A5epREiY1Uzev/5uV9wiURdR9c37hmNlGzUplkPmrRVwSnpBS5JdHqa+xrszq+Cj7zVWJpmljnbE2l/x4avd6HOmHgM4HtsRSOMmPkBlo4nQ51p6xBQS74ntx2EZRa02VcRHxsrE6ggwZS0PAPPYH4whowOONpxWoYL6gzsmvkVYltOxXnynsvvIKOaNaMwMa4Nws5OQ0tT8yRdDk6ET8JVY2JxaI3Zh6Mx+i3JMIFsNXSP4jBv1k9wGXMMvY3ZJxb02OCHSvSzOgmK5FsRdeOqKfFxMx22R4m9Eo9Xh7jzWnzSVYW6N9V4YOnLJGYoNiFWU+HxwrMrsSKpB+Zu8dVbt6n17nSM9eiO0Kj5GDjF2+bAiOwbsfCh+vIPmDY+WrbnL87JgKaXhYbNSF589xLiYpX6jUNbhCe3LuDAj5GIKRyCTQc/RxPjnbQZpcgnKbi0BMGzf0PgxrMYYc48SVEPwzclWxnN0yL7ajxiY2vogdIVP0XG5WPYELEFGd1W4dDctrIbDwy6Fr6RutXkiJgsb+mevio0+q0Yi2Vm9kW31TjYswqGvKFGxD15UqWeUmx0cZPHKpWm7J7uPnaEboAueBc+qifyPqqWGDejN5YvWIFTY8LRQ9jrcCqoVGqo1bLWSx6qi9VQqhzsKsYqfcNweXcQnIwWr0Hyog7olChMwMFBpSJ4JIYEBnaKUaxWkfRij6xD3ukVmJQi6oJJWP1++jM0n7IJCQsC4VPyDsrn0OXE48vgZSgcfwBh/u6yHYp9EBQj6cfpGL9NVKeCh0h/6IngtSexM8gXdUx0HmU+T9ww61uzl06lwBBfHfZe0EL2dRLPdzBBhy4dlVat84ixibELCVZfWY3w+JaYPKWrxJCJQ90hsxCi2ISw7Vn6QyalF7w9M5F8/anBUEr/Bebj+tXb8PT2ern7wT6v1zorSnh518fja9cgWtA3MKfLuYarmfXhbdDrc6gz9Eckp6YiVe+8gp9C3HEzOROqGuUnJGizsHvyp9jgNg8bTc2TDGpl7Y2q6BOaKKovqX/KQcxoeg9X03VwNCEkWrLRAaSPh+XA6jRXoe1dDY7mms6bl6LGSbKzYKCr6bTiFOZjy8XhsNV4MHgWRjQyUtVqnTBpcisy3v4eSUIvpGyGQe83xPHIdbgh4500NzfiuyN1ETi4VSUIYijg5f8BfC+sxerEQjFtgutiJP8QiZNNBmOQjxmthObkXDFw6XIEpszDhDU3bdrFYhyYGmlrP8PnP5PAUJQZ8yTjhuzzxLEL5keORUHoOCxLND3nKWth4nlHS0+Z1SkpqHRDazsOP5NonVmrD2SdKOairmS7kcEivJR9wT0xNjF2Pqn2ZhRCYzwwbnp/GQ+oQMPgmRjyaA3CD+YIvJASLcm2m2H3F2L4F0eQJUGHNjsOc4Pm4ff3/43pbY3vojNRHbs+Vv5pLBaPU2P5XyZjV7rU+ECNuwdmYPjiJxixeAKam6klCpJzHYil3wbixryJWHtTghAba1KYuAwjZt9AwOrV5s2TbCzPnOyOXeYjcmwBQsctgyk9GcyZ+Ib553oauDsrzd6f59hYhT5P1ZiSbQ7E0jTZV9RI6qBC35ovsN/MxUN38qOVFBt1qsZEVGq9AKdXrMR//EbhX9VuERcuh8sbAYGOCA6Nwnz/qfB+2cVwtfsjLGYZQgI/hN/pDzBx4jD0aVUfToX3kBQfjYiV23C3/WLsWRkI93Ic+cghN3zmhG6L9mD1k0CMatseW8d8juHvtUNjsmcth2yjOrolApEH8vHeqr1YJrM1xtAuvcPB1X8plge0w6gJa9HvwDiQfcyC4wUe37mDx2Vz7ad4QL7QWZB9C2mphS/nPmRe5+KJt9z0u1Bd7gnMDV6IuwMisLJZLklvbHjDoZqrF+rXFndeauTeTSPvWXxfAI9sXq1ZryE8Xv4uo3QdxXcd0WV+BMYe9Mf4r/1xYq6f0SCEnpho4+RPuom0N4nKRSeIjUtc0w2tnZTwrKfAj9NkKiORtQrZwezbToHD8VrIjKbKclJM/AZXHquEWeiydpAoXRqePpmDLj5zpJIY3lOuwPJTY/GNIBJRrflobL3YGTGR3yIyfAJWpmYiv5oHvH174+NvTmHCEF/UNjKCNCyggu44NMLQNQlo//E6rIxYjy82zCbrSWTXeP2m6DAgBBsvjiLbjBytA0OGe/5kuBfQfhQmrO2HA+P4nfLEnDoZ3wxoj3+STlLviOsOnwX8HSUaTIpF2oq39SKrxQlbsCX5ObKuhKDNZjloDmizMBEJc5vrz1HJhtXNwc0hm5WriaBd2dj8vqk4u6h8x66YFzkGB/3H4+uBRPR+0vlLfuqLn8DTT7pFR6PRkCiWuuS3wkdHGTgvuZqW+7O1IeqS3ypXkaiVUqnU2zku76nKHRor4A/OgEGfKvROb9TSIsCv8jBEsVBMQoyVBx1D8kdnoERM4h6dXtOhFD2HtimCo7RXq1DuKAaKhcclhblCAbHCGAMiBvQ8k7DH5wVVmwytx/SwfP+WvZmmGCgW8XxJLCp7l8vsMQbMZcBgmEczCj0TnZf09imCP1mMfV0HLZti4OdIVn3D9nWBZ+X+YRgwus7EeynacGkj/qxzPro0qXheaJm0bGGwQeyNxNcVj5KVyBiQ2AEhHOrxDZh+0ujZzN5PK1RQVEi0TGHkjmIRYmQvkTFQWRgw+C8YNDwuPGmYnD+LyQZKeq47XxP7L5fvKiUd2n3aMQ8ODg4lJxURfwrFxLxSZWlKDIekmCgtvKD4dSf6Sdee6EkFdSK1On447WDV1zTkaKdRu8+6FqNnk4ISEVGvRE9+uCkMQFA7TExybLJnFcmAgZh4IfGf/O8sCD0ULyr6bzh3JznhQJJkHMPiegxspcXgVs9K/g0nLyKxRxIGH5iQLKaYZShHBkyKSeiheC/FC4uKiv6d9VSB46mOOJFC9vJZ+NsR7uR7MT19NHi7ST7qOWtLhnL8HIkXknBtiR/iUU6YmMqxZTDTFjMgKSZqRbjFSCwosaiEXiv1UTVcv18VaQ+VuJejwMNnr35Pgn5D1s2Jw5suWjR206CZRxGauBbqzYeEnogXkXhtiQnJ4vfMMlQAA0bFZExQwv179G8qJOG8iv7NDw35T2E9qDfhxSEUCxURPy+iafhrqWAD80gV0DJYERYzICsmsaDoNS8QXlS8eIQCEqbhPRyPTCgO4fBNKCyhJ6J/04MXEBOSxe+YZaggBkyKieIQDvn4a+HQjxeW+J4wL18foSjEohF6LV50NB8TUgW1BlaMTQyYJSaxKHjR8Pf5a6GYxHmEKHlxCMUk9Fg0rVBM/LVNNWWZGQPlzIDZYqI4hEM2Y96KTydMK1UHsecRex/+muYV/i1li91jDFQGBiwSEw9YSlT0mVhgwnt8XimRSN2j6ZmIKkMTYRjMZcAqMfHGxd7H1LWUoKREw0Rk7utj6SoTA/8Du7C8+z1r01UAAAAASUVORK5CYII=;" vertex="1" parent="1">
          <mxGeometry x="343.59000000000003" y="370" width="95.91" height="25" as="geometry" />
        </mxCell>
        <mxCell id="vKyeS9ZQJSm98XENTRNd-22" value="" style="shape=image;verticalLabelPosition=bottom;labelBackgroundColor=default;verticalAlign=top;aspect=fixed;imageAspect=0;image=data:image/png,iVBORw0KGgoAAAANSUhEUgAAAIkAAAB7CAMAAAB3oFPpAAAAYFBMVEVovUX///9huztmvEJWtyie04vj8d5fujdkvD9buTH5/Pj1+vN9xWJywVNStiFZuC3Y7NGr2Jt4w1vt9uqHyW/G5Lyi1JC837DQ6ci33aqUzn+y26SZ0IVtv0yPzHno9OQylbzYAAAHMklEQVR4nM1c6ZqrIAxloBWoWlurrdP1/d/y2kUJSgJY537m59TlCNlzGPYTIrvLPWfTJD//7oLewfyXpKecSzURCBNKyrLezIGkybWYCqNDo0v/uniRrLff4nhh2e6/RJJmcgYcT9GVZ4c8SEo+ExDGePUNkutcK/IUSW8QiaRZzQiEsW0yFcmmnENZjShyfygkv3pWIK3W1tOQHNi8S9Lack7YD4HkOp/ddEIpLY4kmVdd37I6TEBSTQ41hPBrPJKZLbiTFRqAMCRpPre6vkVkmNJiSPZzelco8hSH5CD+ZknaRbkhi4IgOc9vwZ1gluxGstuGP1lpLYsY4NtHOJJNhAXzqjkckrUK3011D0dSF8GP1Zf3LU1EaCicluxCkt6Cn8qP/YaGoxelS2ldSI7hFrw1z7yG76j8DUPyCAcCM446PIcQKg1Cco5Q17W5LSZimk2lkNAWLCyXhyIRHltyWPIIySYjniFkXpXcrBmCRMmsqhTlYxyJ5AjJidhufqvTnzSpekVyI1F50ipycqb0TTc+JCnhF2T1UbR797lOJKoz0hOxz+NEcohkjX+I7tVs06UMTiSyLyZ2HFd+eaGRJLh/grfuOY4EqsDuhkPRA0seILmjdxbwGzrf4UQC/vaT4JsN7x0jwVNGbcXykySQnOGVD7zlsbJLQgsJXvRJ2xV1S+dCInJr2RNU8QaWbCH5xe4a1Pm7DrBbY21dPKFQpFUSQiR4yqisMuXBOm1y+5NBqoqao51IQiRo0be1Eoqm6AEjPnZlVzVomWAlksz5KFvscukCnDAWd3ofSD/YKgkBEixlFDf4WKv8QCOgtMoadLGhnRkkDebUCrjtJ+v78KyAZ+CmFLdks+89EjRltKq22g4lRH4ioVtBw6owgHskaNFXgKg5dJlUpqRBiojXtsbOOiQHbCtFDr4tG1xF5mwK+NALasmsW/EOCVr0wex35PloJEBVUjSy9onkBwmeMmqjJenIGuk8Fnq4NRpau0TygwQt+jgo2I6jdaORiJv5tcHDzx0iwYs+afT1MEbrye0LEFjwpPRjEi8keNEnbsYLOrTOgwQ6ALx/KEqDBC/6YOR2pAy+eqcw5lPjaenbKJ5IHvjKgQi/c3yUDwmosBL0He1b0g8SougDZb3LJfiQfBb+KVTr/QWY0UWfNGricpPeahR4NzxFfs8WGFn0idKEYZd5eZGATv2eqAmf6sjIog8obOK6zIuEm1yI7CW0JSHDM6onEpMjOXXfvzvmU8hWTxsZmMskzJuM7l9c13mRADdLdzVUwtB8/vUms7jObfb3T3j/+4NEImtG9m2+R6INErLnxPeMnLB9j0QGIlF36lc/En+fDSAhd0eUHiQejWUrE+Kc2ww09jskoO53F5WgH+tcEpC30Q3bFgmpJ6CxvXPbWPHZv8bd4gOKRHdJVcXIhq7Iem+fIg/iZZ0kuzN3f5A2CSQ9MWpth/QnsDTHejJCK6Ex98hNLKci4MufkD4WdlumDG1hL4UeyLc+low7sMbAc2Li+aYQfNzICzNPLIYqO2VGCepH+kNesZhuSoPlXUdvD7x7XKIAeecndKNeGpVzZiikwE4N2ch/52z08AJGloghx1tA/eh2fN1LPnksHZtM4IhmGoCoRW9On9uTQy7YIIzTFNMGaDN7ajlNvUMO/mDFv4maZ0PeC2Wgn2GCry62OQlI8HEDAc3klHJrGtTFJMXDaiVfgu1HWU0xqn6wegWkJVtDIXJ8BERI0LDcUE5x0D+hiAT2UKgKgqIE7GpTYbg3MG+fjQ05CSGrwnM4caSyNSHSARIStz3/2Ht1RWZwRUiWwrj3SFoyKPmfUm9JZytW1oSH1HIw2A/oUT+R2/SI9F6gsIXO7bEnmTW6etQ0WWs4P2wy7bxaSHaxh54J5Q3dfXs6rAyJgpsm43L4Ds7ZZUBYSxm1k8gsg84PtyPSSHLJt5orJVpRisstv47G0WlJBhxkvuOhSRUO+mTaXK73rJXqfDw5SD+HnKwc0JkXPgd8f4GLNdLK5inOXxJiXMyoOaCPEFs4uBqUUCN0Zkf5IRIfxVBnOIFyLHtPYkXNi33lEVMKY+iNJMk9UWFIxgznFbxE6IokQ3eS7umdYV5eAcW1+CyLPDpIRgM53fyxaUj1i+GffIRvj+S6HE7Kf37Czz+hS8IOC89qRHfT3VmMfK9D/JwcuiTsRenb/fcx+KzNoT6XMij/D+EphbIvhZIrVh0vdZM8HsmuPu3veVGE0h9DuFtRpd4z3OhitSq0ljyChBnGZ4vh+E2UUI5fDO9xmoTyHmO4oJMknAsaw4+dIuH82CjOcLzEcIajeNTREsOjXhC3/C/59gwJoP/9DIKOPIOwoHMZyzmr8kfnd2xSZCCS5ZxpWs45rwWdfVvOecAFnZFczrnRBZ2lXdD54gWduV7OOfSfBZ3Nn+H/FfCZ/l/BU/7H/3D4Bz7AWG0Pi0gSAAAAAElFTkSuQmCC;" vertex="1" parent="1">
          <mxGeometry x="533.24" y="163.5" width="36.76" height="33" as="geometry" />
        </mxCell>
        <mxCell id="vKyeS9ZQJSm98XENTRNd-25" value="" style="shape=image;verticalLabelPosition=bottom;labelBackgroundColor=default;verticalAlign=top;aspect=fixed;imageAspect=0;image=data:image/png,iVBORw0KGgoAAAANSUhEUgAAAOwAAADVCAMAAABjeOxDAAAAulBMVEX///8ANFgAMFUAK1IAL1Xh5uoxWHZrg5jw8/YAL1QAKVGJoLAAIEz6/P26xc4AJ1BneYwAI03p7fD1+PoAN1vX3uPi5+sAPWIALVbG0NgAGUgAIUwAJ1IAMVlyhpnP2N6VprSxvsmntsKDlqdRbIQaRGUmSmkpUXBAY34AE0dzjaBTcIifrrsAF0cVQGG/ytM5YHxWeI9WboY+W3cADUMARGcmVXRLcIkyT2xsgZSTn6xOZn4pSGYaUHEUvyVKAAANIklEQVR4nN1daXfiOBCMJRmMwRgw5giXORJYwkAIOzkmO///by2EJEjgoyU3WKTe2y/7YqMaW6VWq7p9c6Mh2utV1kO4FLxhz64vvKyHcRFYRYMYxB3Xsh7IBdDI14lhGIQ9DLIeytnh59iO6xbs/qdP3HKJGV8g/yx+8qtsBS1icKiufy7b2rwucDUMOmlnPagzwZ8w4xj0dZj1sM6C9h094bqVKWOe9cDw4QTV0+f6IVOdx0bWg0NGbRzKdP8qb1ZO1uPDhFlpRZM16H3wg4LH9saO4WoYhXr+xzzbUag0CRPXfjCzHiUKrLFLErjuXuW7n7AG+X0bwHW7Bi0DK+uxpsVgFj9duVe527/y4HGYg3Ldovt01bu+oB4eSUS9yvfXO3Eb+V8yVHdsu+Mrnbj+rCrJdYvu+irXoNVUYroe4D5e4a5vkEuKJCLA7kfXFk45f+Ki4Xi2Vxc8to+TEhIg1dxVrbhO31Xmauz2Qde062sridMB7Jp2fTmpYCKMbT1/LSvuqpSS63bi0ul1pGu817QPdgfaHF7DxA3qCFx3r3JR/1fZf8d4sFuQVt/PmkwSFoqxUwhaG81Pv/x79XjiBOxulDWfODhjhc1ONEhL52NrXzkojkC1om8CY403Yz/hbspZk4rAoIPN1TBKuh5+vbssDGk0y11rGlz4xXBU1Lmyh6xJyaL2phpokLzGahwBc6YmXPQqfRd+S2Xestk1ct1u6HvybEldU21KxGgpz5YWsx61Iryda1H20d5fYRr5A1ZeXpLp5DoSFqewFDLnrHit09aqF6TZtvQ82huUTzDc/rfisqKDO/lp29TxrMvqlU7Q2f73T3D4G2d0Jz1v7RcNX+RxRGactLgtmhPIH4ywIDNOURhEpmOE9cOZS4uUfj5spx9Ngr7zWUKwp+TA9l2zaTtsxrye1ScuxPXkF6DuWKujn9pDLIPunJfkjTTbnlYJ5GHCu9nlg9zyq+xy29GJrDdNHD4fGwSSXPV6svPEw2dyz+cIx5IvclcjsiZgZ043/IDzcql0jcg6oO2MXeEk2XqSMiK09CFbhkW8Nm+D8aUkuaoNWesNOG6bl+TVvUSUrI9ADaGjJnTBXyaRptFmzjbewS8k+Y+PcgP4o9WGbCAhNaIkz7vQ63QRqFoTznXL9oGT5FoFugDpIlB5uU0M5Y9uzAnsYnKrB9m2bFBfHfNXTyHzli31cKo6D/JpFl6SIUs01eU0WiHNL0ryKFGkuhM93uGbRvw2NupJ8aMvxrMldl+XNMVI6UidzTjrmreOk2TmFnVJUpjP8knvHQTnQC1m2utU/TJWtYuUxvyeYBbF1p3pYwtK4XkivCSvwrOwhFU0kaYdVNTpi8gdv5wMw6YtqetkbiunMfywnCDJp8VdBbbQIpLYw5ukMrPRZ+7k1Ts5O2F3+kzXm/Qeapc3wtTWokgRXSKJPaI1FIoSHyWbvCWbkb5WJnInSFnOYhxJMnd0S5qalUmb8sfKJ2B3fJTc/vfrf3f1iSQ+4KzTP9gdW94Ms/fbEzbVJRj+gv8PAtetJAsL0HjX8czQz6zYQKoEcNfc7LTyjNSL2nHdhnh3anuAY1R553Rj8qusyyZHwFDBixgCQgLupr5WqyuHQN6dF8q2qXU1yyecOYYg7/as1+BPtB5w2FLd/CHfsLitiCnv4AqF/Z4dnziUc/xmpC3XYiQSVS2LWRa39DcftpbjDEESYPqZqL1gGzfRR34lXKRoW8CBLHWTZHPvxKO8A8uKcixKgr3qJcnmw77witT5nRmaJG90kmTzu0UBW/I7s1oTSZIfM6N2glX3wKnQ5CXZlzFHxMB9yYycCGckxIbsL1+mUEZia+hRDuAFR+GDW+EWIAdPkjVg65w06zVs/vzCS3bzgaBFlPxyWv9KDGFhlDdMR7DNOtFm5sKeGxFspt4zTvU3bWb7IrcjfHcFIVk2SN07Zw93nWWmohzpMaQzXpKHSDsgI8PmSIv76PezyhsvVWpYwsCWmSWNiyTueTH+/AJgsAaBLLORZC9fjX1aRCwvUqz0PgbLpB7NrCQtKESwPFhIbOn08qnjNsDsLWb0FWpYQuFevKfZ6hUycpt3+ThllB5fhlG/cJQ8nMKekrvmrwqQMuf1SyYunKAFPd2w+/yFY7CFOJ5t63J2RasIf0JkKRg91jgLUOFilooasJH457iEis9aOlvJN2juMiJl5uWezpEkIy1A9tsl4kb57no0x18fW1wqATY+vyS3f8s/GXfG32EkVTUQCdIKzs11qHSiQQSjbJC+fejHTZf4kuxw8BaQ7zmEjYtfGJ0+Toc+/DTNuMJDodnNflxTflyNCc4ChC3Ji5ZND1Bvtsb+8tG7XFlhNOwHTEleIXi39qDP/Likygpj0JrjSbIPr6NLRFXYqwyRcskkwGILLgYFQWzwE9yi3JSgfdymiJQk+xyXmD6KreqAA0uSV2rrTCSIkF2tAQvtksCeMSTZV11nIkH/8lGyiZRLprP0koy1PxHGJXgQ2lOkKDm11dobYz/XHapCF5ghjgnOqKeV5BHS5uQIYnZ1gSTJKTPn/nm4GqQpSjLSYWYvTS7ZQnJCnKIgeOE9pObOhbp6S0IPxfUeDjFxgdVoXyiWl4NE1wR5uBNRknF+S7n6BS/8D4VoRcSSZENNkrFOjiNBBCtiEadPOempSHJCCzKMcYnucMnuDpF37SjkkuGNP5QhRu9eBUmS76QlObl/AALsGb8wmkjbZvYgydY/rzh9wRayq22kxIWkJGP9IyfCzvM/W0ZKXDAZSfZiGl8iQ5TkAOl3ZYoSA+zvkESDie5wLH9JC5y4QHqbYGCvfNxoveEIo1gsHwMLy5kFQmEqDKvxhJSmeYJJMpKfEjqqhfjrAyTHBZ0D0jTe/JLP1WCV42VihZT0KiUfZjoL9ARbHNj9aXC3wJFH0luE8BPfIqT0FxCdIGQMys1oRJBegiR7SMf/QLDnsFfNSvf50sPdX+Ml+aWH8jNAkIhOiT6WvyS2MnOEk+cDDyaquM7fIEnyW3SUXMbxOYCHMonMGGHVKrqRkmym7o0ihdg8L9IWk/SC8PvXFL6nkgasH7cQFnGO9yKiZGd8ufB/B/YaG9BZSGma8C5KQ+SjySSUEiw9DfnOlKEQSzL2MC+51dnCXocQFODncDp60JOI1DzD0WQcyO/kc5k034EXfutIkp3xZcXJcCHGaKxlX0yH3CxwzN1g2DGrPQeZFtAxIC3+GO3MJx0nYDlYJtvqI+Ubl4ffawCt/klgFAYbbCWN6xoqNbLZdxSex8pO54EYgxO7PtKJE/v+GAPK7YzuvGYBIWFsGciY82PAvix/OHc7U6ebIY5IGdUFHtmzfWPRWaT65PAB/5bRyHbPVlFkzZFii721DuFOnX7SmNWBdVS8l+T096Fn/d6tiZRL/pDk1HchS/+sFScDrMRF30tNltS5nEPNBKMB/hdC6vJn3C7Sk+W8iI11DowZXMCLBIft77Rk+QnrjQ1GoLA3YEPAaSNnJRReUpIlXS6aGEn5mSi8B1ANxfJnF9ORJVVu/yT7Ne8qvG6jhlEYUxqkfLJcHqDWlMykECPx9OkbA4Rz45aVimyLy/AoODtJDi5S6SW58Jhq6WGbw7bY+aPwT8/e4a6l1MXy9jzVk+VXWLV8B01MM34jtSR3RmkiqA6fynLUqp068BYM1ls6tr1BCrJ0IozFV+tUfQt3LaVzo5Gdh0b1Ypo7mm+B0nEUmcKNpH6aXtg0xUbgtCjZe1RaHdgEnuQoA751GgX3z40y2dapRXCgdtII8vF8YtFVZktGymRpyJGjo6iXpQBM1imqpmnIR68MpUtp6ALZUDwz+gUv01fOnO9TgipXkm64qgA/M3tyu99wkTIVLT307UaRbCkiqIV9QDhkJBN4JOWridS+wZrChZ1+lKSYiikUJvFN+nJH4Tc+O0cojCzmOQzVum1I9RIZKiQuyH++ElkyjdurKGoUqcNFyvsjf1DNNjcqZMWuoCcYKH7fpLCEi5QlLw2fOw7Zy9x87ECUv79EZ/CyjZq0JLtFFbKsmSAlDdWqfSrxqYBGSfL9uR0okC0sExcJ1ZP8SENaGAaS0/bXjTxZULX1WHEnRmS+wSn3WVvyV4GsAVkPa6r1sBTottjBKcrkbWleniyLtpLyUFxsdyE3/NTIykuQ7QylyZIlbOvpvKimFBKkXsBAQhtKDVmypAtd+E1VVymx4S/yCP7xSDK1ZMm2xvG/fkBb9T1mUzDXG4myHJqXJWtXwMH6QvXJVgMwV+sJPleqC0+OLH2Hf7dM9dtapAc/wx9s4FPW/TqRgo6jDj+YuXlRXHtsCX2SmbLf1VLAC8SOMAlQNQa04C+P8wdukTokMGF/71YkuDqKBQ0yPURkvOaHMhDQn7OpTN184/T7ziC0JOxUg6XEfb9nIOSvRc9uIlZqKw9/KJiIIfzt4QJ6yJ+3JMRpi6Ka45CC1/Fd8Stc8Mn3P+L/UKgSSzlK4e0AAAAASUVORK5CYII=;" vertex="1" parent="1">
          <mxGeometry x="330" y="244" width="36.56" height="33" as="geometry" />
        </mxCell>
        <mxCell id="vKyeS9ZQJSm98XENTRNd-26" value="" style="shape=image;verticalLabelPosition=bottom;labelBackgroundColor=default;verticalAlign=top;aspect=fixed;imageAspect=0;image=data:image/jpeg,/9j/4AAQSkZJRgABAQAAAQABAAD/2wCEAAoHCBURERcVERQXGBUYGRwaGhoaGRkgGBwcGxkYIBsaGhcaISwjHBwoHRgXJTUlKC4vMjIyGSI4PTgwPCwzMjEBCwsLDw4PHBERHTwoIygxPDs6PDExMy8xMTExMTExMTQxNTU6MzE8MTExMTE1MT0xMzExOjExMTExNTExMTExNf/AABEIAOEA4QMBIgACEQEDEQH/xAAcAAEAAgMBAQEAAAAAAAAAAAAABgcDBAUBAgj/xABNEAABAwIDBAYGBwUDCQkAAAABAAIDBBEFEiEGBzFBEyJRYXGBMkJSkaGxFCNicoKSwTM1orLRFRZzJCU0Y4Ozw9LhF1NUZHSTwvDx/8QAGQEBAQEBAQEAAAAAAAAAAAAAAAMEAgEF/8QAKREAAgIBAwQBAwUBAAAAAAAAAAECEQMSITEEIkFRcRNCsTJhgZGhM//aAAwDAQACEQMRAD8AuZERAEREARFC9qN49Fh5MZcZZhxZHY5T2Pf6LT3anuQE0RUqd4mLVxth9EQz2hG9/vebNBX02m2pl1LiwHkXUw+AufegLoRUu6l2pj1Dy8dgfTH52K8O2GP0n+kURkaOJ6Jx974yQEBdKKpcP3zx3DaylkjPMsN7fhdYruV29jDo4ekje6Vx4RtY4Pv9ouAAHfqgJ8ipJ28DF8RcW4dSFrPaawut2XkdZjfNfQ2f2ln1kqDGewzMb8IgQgLrRUm7ZbaOPVtWXnsFRf8A3gAWD6TtPCejLZXF2gOSF4Hf0jbtHi4oC81pVGKQRG0k0TPvSNb8yqeG77Ga7rV1ZkDuLHSOeR+BnU9xW7TbkowPraxxP2Y2j+YlAWYNo6Mmwq6cnumj/wCZb0FQyQXje147WuBHwVWu3KUttKua/eGf0XPqNzEsZz0taA4cMzXNP52HT3IC6UVFvftDhHWfnnhbxN+mZbmSf2jR3mwUn2Z3uU1QQysb9HkOmY6xX7zxZ56d6As1FjZIHAFpBBFwQbgjtBCyIAiIgCIiAIiIAiIgCIoZvP2kOH4e4xm00p6OPtbcEuf+FoPmWoCJ7fbbTVNR/Z2FZi8nJI9h6xPNjHeqBrdy3dnNgKLC4RUYk5ks3E5rmNruNmM4vd3kX7gvN2GBsw6gdiFUPrZG5gT6TY/VaL+s86n8I5KP43i0lZMZJT3NbyY3sH6nmq4sWt/sSyZNC/cl1bvCDerSwANGgL9B5Mbw965Em3dYeDo2+DP6lRhFsWGC8GN5pvySiPbqsHF0Z8Wf0K36XeJKP2sLHD7JLT+oUIRevDB+Ass15LG/vBhuIER1VP1nkAZ4w+5OgAey5+S8du6wumkNTJHla3XI95MQPblPHuHwXxsThDKeF1bU2HVLmX9Vg4u8Ty7vFRbaPH5K6W5u2Np6jOwdrvtfJZfpKU6jwjR9VxhcuWSfENvmRjJRQjKNA5wyt/CwcvGy4U221Y46SNb3NYP1uo4i0xwwXgzyyzfkkDNs61p/ag+LGrq0W8OZp+ujY8c8t2n9QoUi9eKD8BZZryWzQ7T0tc3oi98T3eqTkdf7DxofffuUY2m2VqYrvilkmj4m7nGRo7xfrDvHuUNUp2a2xkpiGTZpIeHa9g+yTxHcVL6ThvH+in1FLaX9kYDyODj7ytymxioiP1c8rfxkj3G4U02l2aZVR/SqGxLhmLW+i8cy0cn93PxVeqkJRmiU1KDJjhm308ZAna2RvaOq/wB/ArexbZrDsdjc+EiOot6bWgPB5dJH6w7/AHFQBZqSpfDI2SJxa9vAj5d47lxkwRlxsUhnlHncyYTjlds3UimrmukpSerY3bb24XH4tPwV24bXx1MTJYXh8bxdrh/90PcofDJT49Rvp6loErRfT0mu5SRnx4jyOhUJ2BxKfBsUdhtU68Ujso7A8+hI2/BrhoR39yxSi4umbIyUlaLyREXh0EREAREQBERAFSe9NxrsapKIei3ICOV5HXd55QFdipKiHT7YuzaiN7yPwQm3xQEq3k1XRxQ0sejfSI+yyzWD33P4VX6lG8SXNXkezGwDzuf1UXX0cKqCPn5nc2ERFUkFv4HhxqqlkXJzusexg1d8NPNaCne7CjvJLKR6IDB56n5BcZZaYtneOOqSRk3j4nlaylj0Fg54HYNGN8NL+QUAXQx6u+kVUsnJzyG/dbo34C/muevMUdMUhklqk2ERFQ4CIiAIiICR7I7SGikyPJMDz1h7BPrj9Qupt7gAYfpcIGR1ukA4Ang8dx596hCsXYXEW1NO+jn62VpDQecZ0I/D/RZ8i0PWv5LwetaX/BXSLcxagdTTvifqWGwPa31XeYt8Vpq6d7kGq2Ops1VGKsheD64ae9ruqR8fgvnfbH0FfSVDRZxbcnmTE8EfBwWDCm3qIgOcrP5gtzf+/wCso288sp95j/osfU8o2dNwy5aWTOxjvaaD7wCs61MMFoIh/q2fyhbazGkIiIAiIgCIiAKktmtNrpgeN5f93dXaqQqb0u17XcBI8e6SItQG/t8P84SfdZ/KFHFLt5EGWsa724wfNpIP6KIr6WJ9iPm5f1sIiKhwFZOxp6HCpZeB+sd+Vth8Qq2VsbK9G3CWGbL0eV5fm9G2d17jmFnzvtXyWwLufwVtheCz1AHQROcPatZv5jou/FsBVEdZ0be7MT8guhim34b1KOMWGgc8WH4WC3xWjhmIV9aSW1Tmm9g1rWC5ABNhYcjzN+PYmrI1eyR6o41tuzl4tsrVUzS97A5g4uYbgd5HEBcNWhguKVEU7aauc14ku1j7AODgL5HtGhBbwP8AVQzbLCm0tW5rBaN4ztHIXvcDuBBXuPI29MjzJjSWqJwkRFciF9wxOe4NY0uc42AAuSe4L4Vg7vKJkcElW8ajM0HsawXcR3k6eS4yT0Rs7hDXKjm0OwFRI0GV7I78jdzvMDT4rtYNsU+lqI5WVAOQ9YZLZmnRzb37PjZY8IllxUyPfVvhYHWbDEQHBvIudxN/68FwMRDoa5kNPVyyAvjaT0jtHOeAW3BsdPms9zlab/wvUI00v9OrvPpAJIpRxcCw9+XUfMqCKwN6Mn7Bv3z8gq/VcP8AzRHN+tnZ2Rg6SvgHY/MfBgLv0C1t78nT4xSwD1WxtI+++/yUi3Z0mepklI0jjyj7zyP0afeoxTO/tDau41ZHIT+GFvD8wWbqHc6NXTqoWXpEzK0DsAHuCyIigXCIiAIiIAiIgCpLfCz6PitHVDS4aSf8N4v/AAlXaqv37Yf0lBFKBcxTAHubI0gn8zWe9Ab28yLPFTzNGly2/c9ocP5D71Xyn0E307ZyOTi5kTST9qI2d8nKArd08rjRh6hVKwiItBAKx8L62ASDsZJ8HEquFY+D9XAZSfYl+ZUM/C+S2Hl/BXCz0lZJCbxutfiCAWm3C7TppyPEclgRXInRhxSR1RFI91yx7SAAAB1gTYDt7eJUu3oQj/J5Bzzs+AcPkVALqx94AzYfTu59JH8Y3/8ARZ5qpxLQdwkVwiItBEKx9kB0mETMbxBlHvGYfNVwpxuyrg2WSE+uA9vi3Q/Aj3KOddl+iuF93yQdpI4aLsbJQ58Qpx2Pzfla53zCxbR4eaarkjt1Q4uZ9x2rfde3ktnYt+XEYO9zh72OXUncG16OYqppP2dXeXLerY32Yh/E4/0UOUt3kNtWg9sTfgXKM0VK6aVkbfSe4NHmf0Fz5LzHtjR7k3yMn2z8gw/B5qp41LXyeNhljHmbe9RPcVhxkmqayTU2EYcebnnPIfHRn5lv76cRbTUEFFGbdIQXD/VxcNO9+U/hUw3b4N9CwyGNws946R/bmfrY+AsPJYJS1SbN8I6YpErREXJ0EREAREQBERAFwNt8M+l4bUwgXc6Mlo+0zrM/iaF318uFxY80BU25CuE9DU0r9cj8wB9iVpFh4OY78yjlTAYpHxnixxb7jZbmxp/szaWamcbMlL4x2dYh8dvdbzXT29o+irnEDqyNDx48HfEfFaemlu0ZupjsmRtERbTGFY7j0Wzw7XRD+N9/kVXCseZvS4A3LqWRNv8A7N2vwBUM32/JXF93wVwiIrkj1rbkAc9PerF3iuyUNPGePSN/giff5hRHZSgNRWxstdoOd/c1mvxOUea7e8uuD6iOIHSNpJ+8+36Ae9QnvkivRaG2OTIYiIrkQtrDK51PNHKzixwNu0cx5i61URq9gnRY231C2op46yLrBrRcjnG/UHyJ+JUIwGXJVwO7JY/i4A/AqZ7vsTbLC+jm1FiWA82O9JvkTfzUYmwh9PiMcBufro8h9pheC0+7j3grPB6bg/H4NE96kvP5O9vQjtLC7tY4e4j+qx7tsLzzPqHjqxgtZ95w1Pk3T8S2d5gL5KeNou52YADiS5zQB718baYgMGwboYzaeUdG0jjmcPrH+QJAPaQpOenEl7KKF5W/RCJ3/wBu7Rta3rQRvtccBFFqXeDnaX+0FfrW2FhwVZbk9nfo9K6rkbZ8+jL8RG06fmOvkFZ6zGkIiIAiIgCIiAIiIAiIgKT3zUjqWvpa6IcbAn7cRBAJ5XabfhKlu27G1lBDWRagBrrj2JAL+45fiulvKwT6dhkrGi8jPrY+3My+g8WlzfNRbdBija3DZaKU3dDcC/OOS5b+V2YdwyruEtMkzicdUWiJIs1ZTOilfG/0mOLT5LCvpnzQp9u6xNrmPpZbWddzAeDgRZ7f18yoCs1G54lYYs3SZhky+lm5WXGSGqNHeOWmVm9tDgzqKcxuBLDqx3JzeWvtDgVy1cla2N9KxmJmJrn5Wm7g0dIeAY4+t4KMVu7sk3p6gZTwEjb/AMbePuUceePEuSs8D5jwbOwdK2mpJauXTMCb9kbL/M3+CgNfVunmfK/0nuLj3X4DyFgrR2hwmY4eylpWhx6jXdYNGVup49rgPeVWFfQS078kzHMdyvz7wRoV7hak3Ly/weZU4pLwvyaqIi0EAiIgNigrHwTMlj9JjgR39oPcRceat5lHDWPp6tpvkBc3vzDge9pv5qmVYO7iaoALDG40xuQ82Aa7nlv6QPdzWfqI7akaMEt9LOpRwCrxB9S79lT/AFcZPAvF87vBtyPFVXjdQ7aLHGQxEmnY7KDyETTd8n4uXi3tVhbz6iamw4wUEDyJbte6NpIYw3ziw1u65HmVVmxW0NThQk6GgMkklgXvZJcNHBoDRwvr/wDixN2a4xo/RlNTtijbGwWaxoa0dgAsFnVK/wB6Noav9hSmNp5iK1vxPKxx7eYrhczG4rFmif2tAdbS5Y9uhI7CvDou5FgpKlssbJIzdj2hzT2gi4WdAEREAREQBERAEREB8kX4qh6gnZ7aDNqKaU37uikOv5HD4K+lC95uyn9pUd4x9fDd8f2tOsw9zgB5tCA5W8TCdW1cWrXgNktw+w/zGnkFBVJt1m1TKiB2GV/ptBZHn9dnAxm/rtPDut2a+Y3sdUQSHoWOkjJ6rm+kB2OHb381swZVWlmPNid6kRoKxcBwuLC6d1bXENcG314sB4NA5vPYPBY9ldlxTA1VdlZkGZrXEWZbi554XHILk0r27T1cnSPe2gpiAyNpyulcfXeeLW6aDjY8iuM2a+2J1hxV3SKx212tlxWozPu2JpIijvo0dp7XHmVLt1+B4jPK175p4aRlibucOktwjYDwB5kcuGqnj5cJwx+SOmYJG6dWK79Ptv4+N1ycZ29klYWU7BE0i2YkF9u62jfipRxSl4LSyxj5OrtXtm6KXoqQtuw/WPIuL+wB8ytmokbiuFukLQ2RgcRb1ZGcbHsI+ag2C4DNWPAjaQy/We4HKO039Y9wVojDmUlBJFFwbG+55klpJJ7yqzUYUo8kYOU7cuCmAUXjeAXq2mQIiIDYw+l6aeKO9uke1pPYCQD8LqxtsscfQMihpg1hLTra+VrbABo4X7+5QfZWPPXwD/WA/lBP6KwNpqvDDM2LEJI2SBmZudxacrieDgRzafcsueSU1q4NOKLcHp5I1hu388bQ2VjZQPWvld5kAg+5dD/tGHKldmPLONfc26+MmAM1NRCfGdx+GZYJtvMFoQfo7Q9w5RR3J/2j7D4qcpYnxEpGGVcslWC4jV1JDpIGQRcesXOkd3AWAaO8+5Vfvl2ijrJYqOmtI6N5LnN167hlbG3t4m/l2LUxbbzEcYeafD4nRxu0IjuZCDfV8uga3wt4lTPd9u1bQOFRVkSVPqtGrIr8SCfSf38uXaoN29kXiqW7JnstQOpqGnhk9OOJjHeIaLrroi8PQiIgCIiAIiIAiIgCIiAq3eHu3NTIazDzkqOL472D3D12H1X9vI2vobkxWn3k4rh46GshDy3QOmY9r/ztIDh32JPar8Xw5gPEA+IQH5+qcQxjaFwjawsgJ1DGuZD4ue4kv8LnwSbDsR2YqOlitJC4AOdlJjePZeOLCDexv87L9BBoHAL5kjDgQ4Ag8QRcHyQFW0e9ygqGgVlO9h53a2RnkePwWx/fvAmdZrGZu6mN/eWqQ4ju7wyclz6RjXdsZdH/AAxkN+C5w3S4YDcxSEdhlfb4ar1No8aTIntBvjuwx4dBkPDpJANO9sbdL9hJ8lId3NXJPgk0kz3Pke6Yuc43JNl3J9kqKjo5/o1NGx3QyjNYufYsdpneS74qN7qNcBlH2ph/CEXIfBDG8B4L1eN4Ber6p8sIiICS7ARZsQYfZa93wt+q5W1+GNxXab6K95Y0RtY5zbEjLE6TQHTi4e9STdlDeokf7MYH5nf9Fwdl5fpG1tQ/2HTDyjtGPksHUPvN3TrsOmzclT361XKR3MYPjquzh26PDobF7ZZiP+8fYe6MN07jdWCigXNPD8NhpmZIImRt7GNDR8FuIiAIiIAiIgCIiAIiIAiIgCIiAIiIAiIgCIiA1sQZnhkb2scPe0qtNyzs+EVDeyWQe+Jh/VWi9twR2iyrDc4Mn9o03OOo4dzs7R/u0QIa3gvVlqGZJHt9lzh7iQsS+sfKCIiAsTdjGGxTyHQZmi/c1pJ+ahW5YGfFKmoPsOJ8ZJL/APxUywqT6LgM8ztM0crwfEFjf0XJ3D4dkpZpyP2kgY09oYNfiSvm5Xc2fRxKoIthERTKBERAEREAREQBERAEREAREQBERAEREAREQBERAFVtFIMN2mljf1Yq6MOaeA6S9x8Q8eL1aSgW9TZd9dTNmph/lNO7Oy3pObxc0fauGuH3bc0BHtusKNPVF4HUlu5p5ZvWb4318Co0pjsvt3SYlAKTE8sc4s05+qx7hoHNcfQk7jbU6XXTm3eRuN4qhwaeRDXfEWWzFnWmpGPLgldxK7XQwXCX1kwjiBt67raMbzJPb2Dmpt/dGhpW5quoFhzkexjf0XHxbeZSUrOgwmLppDo3KxwjzdvDNIfAa9qT6hV2iHTv7j43uYk2KmgwylF5JSxuRvpBgIawW7XOsO+xU+2TwcUFDDTixLGDORwLzq8+GYnysoZu+2MmEzsRxS7quQlzWOsSy4tmcOAdl0DfVGmh0FmrGbAiIgCIiAIiIAiIgCIiA4W1W00OFwCaobI5pcGgMALrkH2nAcu1RAb4aU6ilq8vbkj4fnt8V7v0/drP8VvyKl+y1Ow4fTXY03hjv1R7AQGrsztrR4kS2nkPSAXMbxlkt2gcHfhJspMqU3nYezDsTo6qkAjke67g3QEhwF7DtDiD2q4qiqZFGZJXNYxrcznOIAaLcyUBsoq/q97WGxvLWulkANi9kfU97iCR4BSbZ7aOlxCMvpJg8D0m6h7fvMdqPHgUB2kWpiFfHTROlne1jGi5c46D+p7lCRvdw3PlzTZb26Tojk+eb+FAWCsbZWkkBwJHEAi48QuHi21tJSU8VTNIRFNbo3BjzmzNzA2AuLt11VQbrNr6XD3VLqyRwMpaWnK95Nr8SAe3mgL/AEWhhGJxVdOyeAkxvF2kgg2BI4HUcCovjW87DqWQxmR8jgbO6JuYA9hcSAfIlATdFEot4OHvpXVLZvq2Oa14yu6RpcbNuy17Gx14aLvR4nG6mFSCeiMfSXym+W175eN7ckBFtrN2tJiDjILwzHi+MCzj2vYdD4ix71Dmboq2Pqw4iAzu6Vv8LXEfFT523tAKP6WZiIi4sbdrg9zm2uGsIueI14Lq7O45FiFM2phDxG4uAzgB3VcWm4BI4g80BXVFuYY52asrJJDzyNy+Rc8uJ+Cnez+yFFQf6PC0P9t3Wf8AmOq5GK7zsPp5TGHvle3R3RMzAW49YkA+RK7Gze1lJiTSaWXM5vpMcMr295aeI7xcIDr1dSyJhfI4Na0XJPAKKS7fw3PRxSvaPWsAPIcffZau8+VwiiaL5C5xPeQNB81LsLpoo4WCEN6PKMpAGotxJ5kqqioxUmrsi5OUnFOqNLANoY63MI2va5lswcO3hYgkcl13yBoJcQABck8APFfMdOxhJa1oJ4kAC9u2yg+3Nc+aojoojbOW5+8uOgPcBquYxUpUtkdSk4xt7s6NZt1TtcWxNklI5sHV8idT7rL2i25p5HhkjXxE83jq+ZGo8xZdnCMGipYwyNouBq4jrOPMkrDj+BRVkRa4APtdrwBmB5a8x3L24XVHlTq7Os14IuDcHmFx63aGOGqZTPa8vkDSCA3L1i4C5Lr+qeS4G77Enh0tJMdY9WX5AGzm+ANiPErBtN++qf7sf88i9WOpOL9HjyXFNeywkXi9UiwREQFab9P3az/Fb8iubg+850NLFE3Dal72RtaLei6zQAQ4NJsfArpb9P3az/Fb8ipnso0fQKY216GP+QICt8PwGuxvEI6zEYugpoiCyM+kQDcNAOuptdxtw0C93q1UlbiNLhkbi1jyx0luZcTYntDWgkd5VvqmN45NDj1HWyA9EclzyGQ2cL9tnAoC0cM2fpqaFsMULAxot6IJPaXE8SVU21dIMCxunqKTqQz+kwaN9INkbb2bOa4DtKumGZsjQ5jg5rgCCOBB4EFU3vPnGIYvR0UHXdGeuRrYyOaXD8LGA+aA7G/GGWShhdGCYWyZpLd7eoT3cfMhSDZbFMMr6ZkdO2G2QNMLmtD26atLDx56i4KlbomlmR4DmkWINiCLa6Hiqo3k7CUtLTuraO9PJGQcrHEMdc26o4sd2ZdO5AWlNQRPY1j42OYy2VpaCBYWFgeGmiqDcjQRSuq+ljY+zm2zNBtq7hdWNu+xOSrwunmnN5HNIc72sj3MDj3kNBPeSq/3EuAkrGH0gWm3Pi4fNASPexixw/DOjp7MMrujGXTK0gl+W3AkaeZW3u82Qgo6KN7o2umlYHyPcAT1gCGi/BoBGniuZvvw182HMlYCRDIHOt7Lhlv4Ake9SbYbGo62ghfG4FzWNY9t9WuaACCPK6ArvfZs9FBFHVQNEbpJOjla3Rr+q5zXFo0uMh94Vg0Y/wAytH/lf+GVCN/GKxmCGma4GTpekcAdWtaxzRfsuX/BTmi/czf/AEv/AA0BV26DZplfnlqx0kNOcsUTtWZ5Os9zm87AM8b9wUs3sYiMOwxsFI0RdM8sswZcrLFzyLcybD8RWruD/wBBn/x/+Gxe79sPdJRwzNFxDIQ7ubIALnuzNaPxIDe2RrsHw+kjibVUpflBkeXNu95HWJvyvoByACiO1GJ0lNjVJV4ZLG7pHZZ2xkFvpNa4kDQFzXe9t1OtndnMJraWOeKkgc1zRfqi7XW6zXdhBuuq3YfDWkEUcIIIIOXmOCA6WMYVHWQmOUGx1BHFp5EKF/2biOGgmB4miGuW19O9h1H4SrBdI0EAkAngL6nwHNfZXcZtKvBOUE3fkj2y+0rK1paRklaLube4I9pp7O7ko5BrtAc3Jzsv/sm36rzBsr8ckdB+zGcuI9H0AD5F6+tsad9JXR1jBdtxf7w0IP3m3VkkpNLyiTbaTfhliItTD66OojD4nBzSPMdxHIrFjGKx0sLpJHAWGg5uPIALPTujRaqyFYOLY7Ll4Xff8v8AVfe0376p/ux/zyLNu/oXySS1kot0lwzvubucO7QAHxWLaX99U/3Y/wCeRab769Izfbftlgr1eIspqPUREBGtttlm4rTthdKYw14fmDQ7gDpYkdq7GFUf0eniivm6NjWXta+UAXty4LdRAFx9ocAgxCAw1LMzSbgjRzXDg5juR1Pjcg3C7CICrot2tZADHS4rLHAfUs64HZo63yUi2P2Ep8MLpGl0s7/SlfbNY8QweqDz4k9vJS9EBFdsdlHYgYnx1UtPJFmylnonNlvmAsb9Uc+1Rt+7OepLRiOJzTRtN8gvr5uJt42Ks5EBrUdIyCJkcTQ1jAGtaOAAFgFXeLbryat9TQ1b6Zz3FzmgGwLjd2VzSDlJubHgrNRAcrC8L6KjZTTv6ezCx7ni/SA3vmBvcEG2qhM+6SFsjn0dVPTtdxY03A7g64NvElTvGaR09NLFG8xuexzQ8cWlwtcd+vHkq8bgm0cI6OGvikYNA6QMLvG743OPmSgI/vN2dp8OoYoYS+SomnDnySOvK8MY8ceTbvFh81bdDQXw9kBOUmAMJtwuyx07rqGYJu6lkqm1eL1JqJWkFrPUBHC/KwOuUABWWgItsNsk3CYZImymUPkz3LQ23VDbWBN+CkNZSxzRujlaHseC1zSLgg8QVsIgKwfutfBI52HV81O1xvkuSB+JpF/MX7yupgGw08FSyoqsRnndHezTfIbgjrZib8VO0QHA2i2dbWljjI9j2Ahpbw1te47dBzXGOxk7hlfXSFnZ1uHgXWU3RdrJJKkcPGm7ZycCwKKiYWxAkn0nH0j/AEHcFv1lKyaNzJGhzHCxB4LOi5cm3bOlFJUiFSbDmJxdSVMkQPq3P8wIJ81xazZurjlD5mfTGjlndr4jj5Kz0XayyXJN4ovgjGAbSiaUU5ppIXBpNiBlaG+QNuA4c02g2SFZOJemcwhgaAG34Fxve49r4KTZV6vNdO47HWi1UtyE/wBxX/8AjZPyn/nXa2ewJ1HnzTvlz29IWta/DU9q7iI8kmqbCxxTtI9REXB2EREAREQBERAEREAREQBERAEREAREQBERAeL1EQBERAEREAREQBERAEREB//Z;" vertex="1" parent="1">
          <mxGeometry x="770" y="190" width="50" height="50" as="geometry" />
        </mxCell>
        <mxCell id="vKyeS9ZQJSm98XENTRNd-27" value="" style="shape=image;verticalLabelPosition=bottom;labelBackgroundColor=default;verticalAlign=top;aspect=fixed;imageAspect=0;image=data:image/png,iVBORw0KGgoAAAANSUhEUgAAAOAAAADgCAMAAAAt85rTAAAA7VBMVEX///8giP95uP////0Mg/8Aff8AgP8Whf/6/f+nzf+SwP8fiv8Af//y+P9jqf8NhP9ztf/Q5f9Hmv/Y6P96uf/t9f////psrP/B3f+gyP8rkP+81PFCkfje6/6GvP8yk//19vVYov+Nw/+vye5rp/R/p+CuyvjZ4uqIuP+hwOgzjvpCk/ZjnO2Zwv9ypvOav/Xo6+3P3eqz1f/S3OuuwdbG4f/L09mgvNlto+lXoPjU4PLt7+3i7/6y1P+OuO1bn/9jm99Gjui/z+Opt8OLs+J8qenb39+/yta2zOhosf/E1+6ZuNuOqswyiu/J0NQLDlj9AAAU3ElEQVR4nO1da3ujthI2gbWMMQZfiDGJuTg3b27OuvVuLnbcpt00Ts/p//85BxKjGwIEjhJynr6f2g2M9SJpNBrNjGq1XMi+blkj1bzpShG8YN3sWJbuy/mvfgb48+Ojcw/UFQCkVwCg1A0vuJ7a1kc3bmv4D+qlY0BqOEKa0uDi4ORT9+NydSqxyCGS2r6rf3Qry+L2p1TPYreBIv329Bk5+kNNyWf32o+tweKzDVR/b8JL74XiSr376CYXQmPgFKAXMdS6n2iYNg6AweAADEOLAEKtmpybQLk++eiG80G23ETrFcn7/fxy0lQjNCeX5zddLaGAlOD5U8xE+yZBT7uwOydX0HKR/auTjr0MDIqi8V/1EzB81MjhadSVnVGD9aRuey2F4Aic+Xs3tzAePLLJp+a33fSnv40DwhAAzr3/bk0thRnBT/Eu86aVPlwRFFv3Gd/j40H0H5CGPT/3FXkxdIgls5n/zofhkeDXtTlfezaJaXtc1T6UbQ3jZ5gF2vmAv1mfVlSXWjeoI4B2WOjd2T5iCIJqrvgNbH0H3Zlf6GV5tMKG6U0lzbYDXNs/F379pFtH2nfgv337tkUDG2NOqR5oYvNw+NbN2xp+Gw4x0C3efy8iTPSJvE7VFM0e2h9pM+pv+uyiObTzlarVhX2oTJjW3cfBn6D14dAn/vRgdsMdkuSspj7zVQzPLSjFWQhqaUkMoTECTOIP8vjLZtMAFOmgkTPwVNiFRrdSy/2thiYg0bDGvYTD3MseeY1D+KFa5SayIPxE1iRhn8kHGkFQcZqZi7jcg9PQWFepCxEDUr/rQcI3cWpnDlMbKiuH15R9ByzhGr3fI/4wSrrWgKTqWRSh4Q2qo0j9FTx1uPSJv5gM55MEVtMMYd+gJtWy+/od8XAKxx+lGTQGv8i/5qZv8+U2nIVHvuCG80KNW26Y1Df/Av9COV9O022xEXwoqIjN7V/Gja9/o/4UE9Tup11S3SjdHynN93+DA34kvO1cmEPFp9ADDxJUQ4VaJxgCYFrMOSZPY82kNN+h9fmQj2NNouzQf8MI1hb3p2QngjbbPrXjmQu8SmgZ/yhut5YYUjjBkOKK9GYDzWUJ1AfxF2tdiW48D/TzTauVi8TCRRKs7aqkG1RStHvGKbYad6Hyl/DWc8Dy4uYmTQ+KYPg1mvvk2l8POj79Ftx6GX8LbjsXrLhPvE7ibwmCNb/XJhmC0590Jz7uxwT7ohvPg1GsHX9P2tFJguEHGbRoZUMxvDvbPAAGgtvOBXXTI+A8qRJYBGvyP4fk+aBRJw0gOTbRwUpw27lgxq2h7NAITIKhsrk4I9VpQPahG3+z/SoE0txs2mpMkqtWCsGaPHJJdUoeSCzjacqY1u+PbjzQGHZHGsFw7/4UYDsNQM7fXjytK7EnlFJJZBEMx+mBgzqRPPlcxFsmbSmq1QVQlmBokwWoC+0C770zyhPctabQjJ0VeO+dUZ6g/M8N3Gj9HxKULReFWWjEELVaVSIYm6KgkBatWcdnmBrdv8X/Vi0tGpRYB0NFOcCdGJQVNKsUwXVxS6YmH6xIe/SC+DjwIMCrgtOiWdgW9S2H3Pkq1HnGoFK2aGcznsAN326i1jkifRdAapOfxo8dVKAtuO1csDa6AnR59oO1u2GX2hDuq5RJjfaDZq0CgDt6jWNHX+sFGjn76uuEJx+66ZSx6MbzAB6w1JOGI0VQ1m2HdOYDZ5D0rC1jn4zxh/DWc8C/hioh4cqlCO5RPifguKxYNhiNUH8U3noOIEetkRijOEF50aS7L9hjCRzBJSThSP4Y2LDBHv0nnKB6SrCTDGXKdG0jR3I1dEzkRYq/eCv1bGL46w3luXfMlLNe/RCeTdyyn3h3XMAhRWs9SNCjdKeSHopoxToUdKvgkYkAD+ITB14tiQ1wne5sGcIj3uuKHJ/VTvZhy4fkrKLOzDYNV4xeemrdHVRE9eNKnL2EkGM3X7hSkPE7M0b6C1iNs85U/oSygurEAumo+eTJrbVP0zOcSVa75REMHE1EhH0k0KEsGUjZuKe6EAS2nyVoFMAnB5UJsgjxBLUJtfMZdfG1HbRW2Rs8ZDRI9Sp4KyB0uBRKxgPxl19QJC+Qbv7JURsdLGbRF9fcEligHbo2I1hYAw8YIArFO2vmDTofi9qvVAeGY0tF4Xj75DDUO7N11wt27FGu1kc5h+DcF9XUkrhDSx5YUUaYrFuWlRdJGfbfBYob0g6qsgZC6EhfGt1SEpZIAqhezHatdo3aVy+RnuMv0QQEXi//hXfHCXYeBszCdvIF5idtzSs3QCM8/xezPAtG3vsTLG5POxDUwi0hq9iBH2ip+WoFvtnxcIvnz0r2Xwh5judeg0POiSSPpg6+66hyaYR7fAOYsaklMArw7gNeVba5LPhEkD1wzG+5o+3uz33ynWoXRdht4q2VjFZ7lFE2JrQAhlSorFedTSAb/jEVUSj9NrVTJtXo+JByJEouO4a0StidBmSbgaIN1L3HO7zlsv84XzZXdCK99meF9QuEfHJDOyoMzdk/C9xlLxp/Vm82HHT3HY2u9wBa1TNA2dAHjCo5AChKvfXly5dWHat+hD/gpVQJCGfqotMMvOhl0F0PO5a1dTmoLWX6Q69IsZUXetqwx/6F+fSwK8FvAgyl7gRHx9vFeG0vszOh1UcOzpnmmXxyPHGS/R2OBm9i35XrxreRKTcW3RYvRVDXVPYA6Z9qKUKA4azK9eKbydx9Xjssv29CbKhkfZYA62t20SRQ956Ket7eVuauPdHolYAWCOrBjC2x082dx8CYFFtX3lxmwz4KgJLK0QDd62O26eLbXZ4Rru0UKCogQqbs66MmXTbmpfyRYtQV89ZKS7VTuYZ3iFP+7y1C5ivLu4c28ipqjuOt2ub4j8f081v9kP7U4SeRNvWg6D9w+kdEyERowiOV66Vt58QvyQuXmCqhdjs7v2wOVVW9mFyen1FaUBtytEaETAwNRPA/+U8vSFsPeNPO7dXmB2X/6tY2SVWhcSRxiZDJJshRpWSIjxijFdAmjtw4IGt6gfw5I0ImBkRQ0vKelad4GKIzYO6Zdx/amL0LTnP0ngiZBDCC9VneAQxeVihIL9PleugxaSf7e4uQSQAjCFbZVQx97Ni73s/wX/h7WEStlpmyLUImCYxg3smtioWbrDN/Qf4Fy/MysnypImSSwAka7ayut9BgMo5yA52wGi+JICSxMingBMM1Jv0jNlBVE2mQH+77yxkaeqkVaETITPwGTjAjn0WG+buSMcgsmLB5fg92TurcFiEzAZIg8NLea/xEUTJcWtpHlbLSAthFyEz+SJO0I5yU2swL6PsHWapI9tH+GBVOmLAfFiEzAYqgJN3cMhnCVB+QVXlsND06Oo4d/A+xhgQpuXgiZCaQIKjcMBUN3M9kVMeTeysFGEbbf/3fXTjDFHbolwiZ+QQlacWoEnAFv1w3/WTKeg3oUJqbnz6AZi6zuIcImVwEQX1i0S//Cp9KPaOXO3GKc5xy2IhrutCJsm8jk89eYxCMKt7eU6vSOH7KYcY6R0A1lOKMU7QMOCyCImRyEoxOEJsH3330GIyX2k+JRpcPUJFHmFJ7G6/MddYYFCEziyDpHQBAO+0OhvPRCxYw46WbMrU7WOAwNBeuYK0JVprFakuZfAEtkCAwTYLhC0ml3noFXH7iiD7Ztyzkl5It7AAZBLFwVM9G+ZLEljKNRIWVHIKDq6ZGU0wA5oP2fp55XTMeJR0sZQ0AGPQnT3icgSVlIs6cBNu6rHp5DOOBb3UVEHbw6iUkRT7A3gPOMZJ+kfvFtpDpFCZYa+jrVnaTvmw+46awzGs5T3yuAGIBVtm1sd5IZnGC4a/8GvA0Bga7A0mVn4i5QkQuFiFYXGYZguFAcZnXpJCN+Q5zZYDTxLwlQCHXzyIEi8ssR7Cmz356qYcWLYv82iTCuUJq/CEHv9IyQUmCkba2nZbCPM2uv1pMMvOsBADaAG5yadFyMgFfaCiD4Asen8aDledoG8S/F6/Yd/tJ9sChKwKidVDSkthSJmeWbRrBCPJovlRfAVPyg83vPZwl2tJd0hYJtDrAQE1iS5mFLZlMlxrcSe9vcmPkB7KyjgRWST8QtBtbLLtRhMzSBGExy9Pvm3+RVWKOAiPxrfFcBNZZ6rYyC+4msgn+iE1yLGv7ES8Sn5grUXunUB+wGiNCZmmC3+Hue4AeQ3MGaIxvXevF1hY4ZMkWIbM0wV10BoWOaOCcAQ7r3AaW8JIUps9FhMzSBGsoT+/aRz/34EUDBtwwM15RRdmUC2NEyEyAl6CFli1ce/mBozmXbG8xrPSY5sMUITMBXoI6LBEEAh//Q2fJ/pRYmLh2zHxCiMwEeAnKU3jQVedaYReoznXaiawImQnwEqyN0FGlw1H+v9GPn5aUfpo6ECEz8RIvwVBBQ/GtXA22u0Ynmxln/yJkUuAnKGNJsdo083vLoyP4qKR8fV+ZFPgJIld79L0zT69Qqdwo4S3L4hAhk0QBgrWv2IbNyQg4Ohmg51jFekTLJFCEYAP3nNYDdk0BWZ/V8UbnHFSKkEn+QAGC8qKNtQYo17PkK73pDb4hMNQc5ShCJoEiBMPNGFHUKooI/n6FPrn8uDfsElFXCkd4mAiZpQnKFun8BtrpfjCeR1O+NzO7+w5Vy5onXU2EzNIEQ/uRKqoeDatN0kUiRhrc8KU7iZBZmqB826Z/MwUADDnT1UTILE0wNAiZd3Ek2+JlXc7xDjJLE5QbX+v5EfL1bpEbtkTILE0wxNV93jGUx064eGeZEUoRjC4pyrgt3NAmJZJhRcislSUYhefcsDNVgOH8tMsVnBEhszTBKA3OVeoKFvgPXvL0nOmCP4v9HWSWJhhh9/sPs919PcFwPG81GP+69UUbby1zK4KvEkb2TFXVWecNk5jfUOb2BCuOfwl+dvxL8LPjX4KfHf8SzJcgYqG3ep35fN5bbF/BpnKmmvz4sFTHrtsP4brjsWr/xZsDwkSljO2ars/MCDsI0f+6e1vUyIjvHyhYt1fE1sbam/ZxbhhL92uvbM1PeIOEVoCgkA3vYsxm90qxz/AIc8GG2Rn8paWFuCwOsvhFcOdFZb4A1ef/wfeCGKfTk5lDL+rFcZmyWR0YMnbE94IIF5+1zGX3OhVTMyzScRIfbPCFJwpx/J6oXPwi2IVrZ92hq2x59FSqm71e3s2uu8m+Ms31em0yxu2wqP6SJzB2SM39OEIOX/Q+ya3vNof2KHpz0VmGSz5FvbA2RXfPnuWaDCKOuk5IBn11Tsq8tUn1avKfz7+iAYNP0pOkNj8m4gDUwuefaX7tJCfKYm9KMCy6XPTi+C+QEx4l5Agb15/hOsCW2ejgs9EtWqUWhuOAbM0uImDgCePn7mXIVLGZOi64cUHBKkZW9VghYSRYx5iZHdPAhrI5LqZontH3PswoWCkiEOgAEewz4nvxR60fqA/NpxxKJPCCHell0EWEXS3GqM3Z/ELIS+xr5DxLtx1FSmtpmlRE4JyFFgA3pbwgIXOGPkdeaRgSPiquyorkjyAk9HEP8jO5jEx9iBRSkaI54adEraEL4sey04JX08ATEAuXN3PMJ3OEjIKCZvcQpbMBj6WiUsKPs5AbfoxsNJNX76txn5sFr8ndRV0YbgMOktYEM4A8G7kB5DM4Qr/yyjyBr/QL3vCoY4uzJDXpkh3MFIAc5KUAyKix3JtjeQi78KngvmmBX42p/U4t5MwkjjzkJHE8wraq/A6lBZyFBV56gfyAZ7cBZ/CErwWsNJx8kdlpOA8xwT5nCsSLTKh5C1ozIf4hK8soBrZZSCZS8SA7OQuu224RmagLi3vZXOoWO9Bezk+uXuz7RCocF1AqHMvihhqxWUQmNH64NS+CfExVCgCS8/v55WTISGZ8+a35nPoRvzfvYMWZUDIjUY9QtkajUa8Du2JYRF1c3ccEy9wEfBskHIIAKFIyHTXE48zt990ZVmhDPlHDfxojQw6lo2JVC/z52I2AFsFCLfXjXYVZ6vag3XZ2uYc61AdX9y8jzLxH48tyX/5pjcxmmFCM6qD5U9qRZBZb0eDqWe6eVfkgyGLYguqwE7cPTa94UiH9BlPCv8CHev0dmmAxbWHDF0sRjC6ZyDh2gA1txDrQXML1CKp9yBkm9SOCs4QncF2sffP+lgRl/SD9ZAU2VI+7y1Rh/v06JgjHcZJgQ/1wghFmq0RBf7on7JggUhHxLyOnEIPgx/fgC/yni3ayhDBeZyjeubhIRXTMTZ/68b/A0iiwLIPMmIPFFjQ4B91tCIaw7KNzT6LuL4DFbaLtdcjH3MGKjb8OP9OFN8ai4jbo3ENfJrRoocLxyHGx/W3Vvm5Zz+PAY5UnqskNfbxej3X8vLrR6a9NFR2PoPJE2DBsLF6Opc01JFhoa4fWwYI7wmzkFphiIqVolbywQtSg/2H8fpZMKnJLhDGRXSIM6lO3iMxtbNEMcBR5SyKnyJsNCRa4lxkpqf6bBi5xlOlLIqf0319Q2xQYbGgdLb4fzAJXoUUaOYUW7yDBAmcNz/Clv1kyy4OnVCaF3FKZcL9k7nHLRHuQN74okK/YKYHcYqfI7zvl9a98Q67wN77Ii7NcLY7ccrUWcuPyrvVwaXnbVbAmpuCw/xW57vlkosOJwoegeRBShhrZpSbPpY/yLery8VYhiCwIKSSOeqSv5oeHnIzh46aAqwJFlG3HI2R+5DYZ20puu5NgyxdQeH+OnWkus2WeYPzMYhe1ckLIdQxYDIw5y5jb/u2Y+1uUhojLLxZ4GNAwfW7P8OcE8RNzJcoe1vAdV2VWot/9NiSe2jowPBUiLqCx8babZiJEUW48U4HOgvovgogrhKwh0XzT3VssMJmLHuWH6/NaUmUg5GIpi3K0me74Xp3Z8/ncXqr3Y6r7+jaHzC0g5GqwrwlX4o650+/3dxhhzjOx/GpiLmKbJ0Ni2XAFzr8YQq7n6+WF3L8Oz6U4/YlDxAWLmUkT8bAVtf4lwHGdJSMSJRv6U0rWC6TnPr8XvwgiLjkNrZU0jqFmfeeruMVcU7u3ZHaj6S57JWVuBREXDY+e1PEOSicI/6s//psOBXg3yLpl9Ybtl12GE+wMe5a+/VXRDV1f2CHLEO54aS/0VJn/A+oeCsF008kWAAAAAElFTkSuQmCC;" vertex="1" parent="1">
          <mxGeometry x="120" y="413" width="54" height="54" as="geometry" />
        </mxCell>
        <mxCell id="vKyeS9ZQJSm98XENTRNd-33" value="" style="endArrow=none;html=1;rounded=0;fillColor=#fad9d5;strokeColor=#ae4132;strokeWidth=6;endFill=0;" edge="1" parent="1">
          <mxGeometry width="50" height="50" relative="1" as="geometry">
            <mxPoint x="180" y="460" as="sourcePoint" />
            <mxPoint x="760" y="460" as="targetPoint" />
          </mxGeometry>
        </mxCell>
        <mxCell id="vKyeS9ZQJSm98XENTRNd-34" value="&lt;font style=&quot;font-size: 15px;&quot;&gt;CICD&lt;/font&gt;" style="text;whiteSpace=wrap;html=1;" vertex="1" parent="1">
          <mxGeometry x="180" y="430" width="75" height="20" as="geometry" />
        </mxCell>
        <mxCell id="vKyeS9ZQJSm98XENTRNd-36" value="" style="shape=image;verticalLabelPosition=bottom;labelBackgroundColor=default;verticalAlign=top;aspect=fixed;imageAspect=0;image=https://simplecore.intel.com/intel-capital/wp-content/uploads/sites/99/Fly.io-logo_1536x600.jpg;" vertex="1" parent="1">
          <mxGeometry x="360.09000000000003" y="151" width="59.82" height="39" as="geometry" />
        </mxCell>
        <mxCell id="vKyeS9ZQJSm98XENTRNd-37" value="" style="shape=image;verticalLabelPosition=bottom;labelBackgroundColor=default;verticalAlign=top;aspect=fixed;imageAspect=0;image=https://simplecore.intel.com/intel-capital/wp-content/uploads/sites/99/Fly.io-logo_1536x600.jpg;" vertex="1" parent="1">
          <mxGeometry x="500.00000000000006" y="78" width="59.82" height="39" as="geometry" />
        </mxCell>
        <mxCell id="vKyeS9ZQJSm98XENTRNd-38" value="" style="shape=image;verticalLabelPosition=bottom;labelBackgroundColor=default;verticalAlign=top;aspect=fixed;imageAspect=0;image=https://simplecore.intel.com/intel-capital/wp-content/uploads/sites/99/Fly.io-logo_1536x600.jpg;" vertex="1" parent="1">
          <mxGeometry x="500.00000000000006" y="235" width="59.82" height="39" as="geometry" />
        </mxCell>
        <mxCell id="vKyeS9ZQJSm98XENTRNd-39" value="" style="shape=image;verticalLabelPosition=bottom;labelBackgroundColor=default;verticalAlign=top;aspect=fixed;imageAspect=0;image=https://simplecore.intel.com/intel-capital/wp-content/uploads/sites/99/Fly.io-logo_1536x600.jpg;rotation=90;" vertex="1" parent="1">
          <mxGeometry x="669.59" y="151" width="59.82" height="39" as="geometry" />
        </mxCell>
        <mxCell id="vKyeS9ZQJSm98XENTRNd-41" value="" style="shape=image;verticalLabelPosition=bottom;labelBackgroundColor=default;verticalAlign=top;aspect=fixed;imageAspect=0;image=https://cdn-icons-png.flaticon.com/512/5969/5969059.png;" vertex="1" parent="1">
          <mxGeometry x="600" y="160" width="40" height="40" as="geometry" />
        </mxCell>
        <mxCell id="vKyeS9ZQJSm98XENTRNd-42" value="" style="shape=image;verticalLabelPosition=bottom;labelBackgroundColor=default;verticalAlign=top;aspect=fixed;imageAspect=0;image=data:image/png,iVBORw0KGgoAAAANSUhEUgAAAIkAAAB7CAMAAAB3oFPpAAAAYFBMVEVovUX///9huztmvEJWtyie04vj8d5fujdkvD9buTH5/Pj1+vN9xWJywVNStiFZuC3Y7NGr2Jt4w1vt9uqHyW/G5Lyi1JC837DQ6ci33aqUzn+y26SZ0IVtv0yPzHno9OQylbzYAAAHMklEQVR4nM1c6ZqrIAxloBWoWlurrdP1/d/y2kUJSgJY537m59TlCNlzGPYTIrvLPWfTJD//7oLewfyXpKecSzURCBNKyrLezIGkybWYCqNDo0v/uniRrLff4nhh2e6/RJJmcgYcT9GVZ4c8SEo+ExDGePUNkutcK/IUSW8QiaRZzQiEsW0yFcmmnENZjShyfygkv3pWIK3W1tOQHNi8S9Lack7YD4HkOp/ddEIpLY4kmVdd37I6TEBSTQ41hPBrPJKZLbiTFRqAMCRpPre6vkVkmNJiSPZzelco8hSH5CD+ZknaRbkhi4IgOc9vwZ1gluxGstuGP1lpLYsY4NtHOJJNhAXzqjkckrUK3011D0dSF8GP1Zf3LU1EaCicluxCkt6Cn8qP/YaGoxelS2ldSI7hFrw1z7yG76j8DUPyCAcCM446PIcQKg1Cco5Q17W5LSZimk2lkNAWLCyXhyIRHltyWPIIySYjniFkXpXcrBmCRMmsqhTlYxyJ5AjJidhufqvTnzSpekVyI1F50ipycqb0TTc+JCnhF2T1UbR797lOJKoz0hOxz+NEcohkjX+I7tVs06UMTiSyLyZ2HFd+eaGRJLh/grfuOY4EqsDuhkPRA0seILmjdxbwGzrf4UQC/vaT4JsN7x0jwVNGbcXykySQnOGVD7zlsbJLQgsJXvRJ2xV1S+dCInJr2RNU8QaWbCH5xe4a1Pm7DrBbY21dPKFQpFUSQiR4yqisMuXBOm1y+5NBqoqao51IQiRo0be1Eoqm6AEjPnZlVzVomWAlksz5KFvscukCnDAWd3ofSD/YKgkBEixlFDf4WKv8QCOgtMoadLGhnRkkDebUCrjtJ+v78KyAZ+CmFLdks+89EjRltKq22g4lRH4ioVtBw6owgHskaNFXgKg5dJlUpqRBiojXtsbOOiQHbCtFDr4tG1xF5mwK+NALasmsW/EOCVr0wex35PloJEBVUjSy9onkBwmeMmqjJenIGuk8Fnq4NRpau0TygwQt+jgo2I6jdaORiJv5tcHDzx0iwYs+afT1MEbrye0LEFjwpPRjEi8keNEnbsYLOrTOgwQ6ALx/KEqDBC/6YOR2pAy+eqcw5lPjaenbKJ5IHvjKgQi/c3yUDwmosBL0He1b0g8SougDZb3LJfiQfBb+KVTr/QWY0UWfNGricpPeahR4NzxFfs8WGFn0idKEYZd5eZGATv2eqAmf6sjIog8obOK6zIuEm1yI7CW0JSHDM6onEpMjOXXfvzvmU8hWTxsZmMskzJuM7l9c13mRADdLdzVUwtB8/vUms7jObfb3T3j/+4NEImtG9m2+R6INErLnxPeMnLB9j0QGIlF36lc/En+fDSAhd0eUHiQejWUrE+Kc2ww09jskoO53F5WgH+tcEpC30Q3bFgmpJ6CxvXPbWPHZv8bd4gOKRHdJVcXIhq7Iem+fIg/iZZ0kuzN3f5A2CSQ9MWpth/QnsDTHejJCK6Ex98hNLKci4MufkD4WdlumDG1hL4UeyLc+low7sMbAc2Li+aYQfNzICzNPLIYqO2VGCepH+kNesZhuSoPlXUdvD7x7XKIAeecndKNeGpVzZiikwE4N2ch/52z08AJGloghx1tA/eh2fN1LPnksHZtM4IhmGoCoRW9On9uTQy7YIIzTFNMGaDN7ajlNvUMO/mDFv4maZ0PeC2Wgn2GCry62OQlI8HEDAc3klHJrGtTFJMXDaiVfgu1HWU0xqn6wegWkJVtDIXJ8BERI0LDcUE5x0D+hiAT2UKgKgqIE7GpTYbg3MG+fjQ05CSGrwnM4caSyNSHSARIStz3/2Ht1RWZwRUiWwrj3SFoyKPmfUm9JZytW1oSH1HIw2A/oUT+R2/SI9F6gsIXO7bEnmTW6etQ0WWs4P2wy7bxaSHaxh54J5Q3dfXs6rAyJgpsm43L4Ds7ZZUBYSxm1k8gsg84PtyPSSHLJt5orJVpRisstv47G0WlJBhxkvuOhSRUO+mTaXK73rJXqfDw5SD+HnKwc0JkXPgd8f4GLNdLK5inOXxJiXMyoOaCPEFs4uBqUUCN0Zkf5IRIfxVBnOIFyLHtPYkXNi33lEVMKY+iNJMk9UWFIxgznFbxE6IokQ3eS7umdYV5eAcW1+CyLPDpIRgM53fyxaUj1i+GffIRvj+S6HE7Kf37Czz+hS8IOC89qRHfT3VmMfK9D/JwcuiTsRenb/fcx+KzNoT6XMij/D+EphbIvhZIrVh0vdZM8HsmuPu3veVGE0h9DuFtRpd4z3OhitSq0ljyChBnGZ4vh+E2UUI5fDO9xmoTyHmO4oJMknAsaw4+dIuH82CjOcLzEcIajeNTREsOjXhC3/C/59gwJoP/9DIKOPIOwoHMZyzmr8kfnd2xSZCCS5ZxpWs45rwWdfVvOecAFnZFczrnRBZ2lXdD54gWduV7OOfSfBZ3Nn+H/FfCZ/l/BU/7H/3D4Bz7AWG0Pi0gSAAAAAElFTkSuQmCC;" vertex="1" parent="1">
          <mxGeometry x="526.62" y="333.5" width="36.76" height="33" as="geometry" />
        </mxCell>
        <mxCell id="vKyeS9ZQJSm98XENTRNd-43" value="" style="shape=image;verticalLabelPosition=bottom;labelBackgroundColor=default;verticalAlign=top;aspect=fixed;imageAspect=0;image=https://cdn-icons-png.flaticon.com/512/5969/5969059.png;" vertex="1" parent="1">
          <mxGeometry x="593.38" y="330" width="40" height="40" as="geometry" />
        </mxCell>
      </root>
    </mxGraphModel>
  </diagram>
</mxfile>
